<svg xmlns="http://www.w3.org/2000/svg" xmlns:xlink="http://www.w3.org/1999/xlink" width="1080" zoomAndPan="magnify" viewBox="0 0 810 809.999993" height="1080" preserveAspectRatio="xMidYMid meet" version="1.0"><defs><clipPath id="34175f8a6e"><path d="M 266.089844 186 L 452 186 L 452 562 L 266.089844 562 Z M 266.089844 186 " clip-rule="nonzero"/></clipPath></defs><g clip-path="url(#34175f8a6e)"><path fill="#182d88" d="M 451.214844 321.304688 L 451.214844 376.792969 C 451.214844 383.082031 447.828125 388.898438 442.394531 392.039062 L 435.464844 396.046875 L 408.53125 453.65625 C 408.53125 463.402344 403.332031 472.363281 394.90625 477.238281 L 311.507812 525.257812 C 312.296875 526.988281 312.765625 528.792969 313.003906 530.601562 C 313.398438 534.375 312.453125 538.304688 310.40625 541.449219 C 309.066406 543.570312 307.253906 545.300781 305.601562 547.105469 C 302.765625 550.09375 300.167969 553.238281 297.488281 556.460938 C 296.152344 558.109375 294.574219 559.445312 293.238281 561.097656 L 271.578125 548.679688 C 268.429688 546.949219 266.144531 543.726562 266.144531 539.640625 L 266.144531 279.492188 C 266.144531 267.3125 272.683594 255.992188 283.234375 249.863281 L 389.550781 188.640625 C 394.984375 185.496094 401.207031 185.964844 405.933594 188.796875 L 427.433594 201.214844 C 425.933594 202.628906 424.910156 204.671875 424.359375 206.714844 C 421.683594 217.402344 416.089844 227.308594 408.53125 235.246094 L 435.464844 318.320312 L 440.742188 315.253906 C 445.386719 312.582031 451.214844 315.960938 451.214844 321.304688 Z M 451.214844 321.304688 " fill-opacity="1" fill-rule="nonzero"/></g><path fill="#d2e7fe" d="M 448.222656 333.960938 L 448.222656 340.71875 C 448.222656 343.078125 446.960938 345.277344 444.914062 346.457031 L 374.902344 386.773438 C 373.09375 387.796875 370.886719 386.539062 370.886719 384.496094 L 370.886719 377.972656 C 370.886719 375.929688 371.988281 374.042969 373.800781 372.941406 L 444.835938 331.996094 C 446.332031 331.128906 448.222656 332.230469 448.222656 333.960938 Z M 444.835938 359.109375 L 373.800781 400.058594 C 371.988281 401.078125 370.886719 402.964844 370.886719 405.085938 L 370.886719 411.609375 C 370.886719 413.652344 373.09375 414.910156 374.902344 413.890625 L 444.914062 373.570312 C 446.960938 372.390625 448.222656 370.191406 448.222656 367.832031 L 448.222656 361.074219 C 448.222656 359.34375 446.332031 358.246094 444.835938 359.109375 Z M 326.234375 426.148438 L 333.085938 376.636719 L 333.085938 375.144531 C 333.085938 370.976562 335.371094 367.046875 338.992188 364.925781 L 340.253906 364.21875 L 382.304688 330.421875 L 386.164062 346.691406 L 404.4375 336.160156 L 416.644531 323.585938 L 419.003906 327.75 L 435.621094 318.160156 L 435.621094 215.125 C 435.621094 202.707031 422.15625 194.925781 411.367188 201.136719 L 392.386719 212.058594 L 387.347656 229.664062 L 337.023438 258.667969 L 332.769531 246.328125 L 304.972656 262.359375 C 294.339844 268.492188 287.882812 279.730469 287.882812 291.988281 L 287.882812 552.136719 C 287.882812 560.074219 296.464844 565.027344 303.394531 561.019531 L 421.917969 492.71875 C 430.34375 487.847656 435.542969 478.886719 435.542969 469.140625 L 435.542969 396.046875 L 407.507812 412.238281 L 370.886719 446.347656 L 345.921875 452.320312 C 343.480469 453.738281 326.234375 426.148438 326.234375 426.148438 Z M 326.234375 426.148438 " fill-opacity="1" fill-rule="nonzero"/><path fill="#e29417" d="M 516.1875 492.71875 L 516.1875 501.363281 C 516.1875 505.214844 513.667969 509.066406 508.625 511.976562 C 498.46875 517.789062 481.929688 517.789062 471.769531 511.976562 C 469.878906 510.875 468.304688 509.617188 467.125 508.28125 C 466.652344 511.738281 464.128906 515.039062 459.640625 517.710938 C 449.484375 523.527344 432.945312 523.527344 422.785156 517.710938 C 417.667969 514.726562 415.144531 510.875 415.226562 506.945312 L 415.226562 498.457031 L 416.957031 498.457031 C 416.644531 497.511719 416.484375 496.570312 416.5625 495.546875 L 416.5625 486.980469 L 420.265625 480.144531 C 420.972656 479.515625 425.226562 477.785156 426.878906 477 L 426.878906 425.992188 L 431.449219 421.277344 C 432.316406 420.570312 434.441406 417.425781 435.542969 416.796875 C 445.703125 410.980469 460.113281 410.511719 470.273438 416.324219 C 471.296875 416.953125 474.367188 420.964844 475.15625 421.671875 L 478.9375 425.914062 L 478.9375 480.695312 C 488.78125 478.101562 501.144531 479.671875 509.335938 484.308594 C 510.359375 484.9375 511.539062 486.511719 512.40625 487.140625 Z M 373.484375 555.515625 C 373.566406 552.53125 371.203125 550.171875 368.917969 548.285156 C 367.578125 547.105469 366.160156 545.925781 364.585938 545.0625 C 360.570312 542.863281 355.84375 542.546875 351.277344 542.234375 C 348.679688 542.078125 346.078125 541.917969 343.558594 542.390625 C 341.90625 542.707031 340.332031 543.175781 338.835938 543.726562 C 336.550781 544.511719 334.265625 545.21875 332.140625 546.476562 C 330.722656 547.265625 329.464844 548.363281 328.4375 549.542969 L 328.4375 519.675781 L 325.527344 515.824219 C 324.660156 515.117188 323.558594 511.976562 322.453125 511.425781 C 312.296875 505.609375 295.207031 504.507812 285.125 510.324219 C 284.101562 510.953125 281.503906 513.703125 280.714844 514.410156 L 276.460938 519.675781 L 276.460938 561.175781 C 276.460938 565.027344 278.984375 568.878906 284.023438 571.785156 C 294.183594 577.601562 310.71875 577.601562 320.878906 571.785156 C 322.613281 570.84375 323.949219 569.742188 325.132812 568.5625 C 326.3125 570.921875 328.519531 573.121094 331.667969 574.929688 C 341.828125 580.746094 358.367188 580.746094 368.523438 574.929688 C 373.644531 571.941406 376.164062 568.089844 376.085938 564.160156 L 376.085938 555.59375 L 373.566406 555.59375 C 373.484375 555.671875 373.484375 555.59375 373.484375 555.515625 Z M 418.925781 279.730469 C 410.578125 283.738281 402.152344 285.230469 394.671875 285.386719 C 350.019531 313.132812 343.085938 342.761719 345.6875 370.113281 L 386.164062 346.769531 L 409.554688 316.824219 L 418.925781 289.789062 C 418.925781 283.582031 418.925781 279.730469 418.925781 279.730469 Z M 325.132812 452.871094 L 334.347656 447.921875 L 338.363281 429.765625 L 338.363281 382.53125 C 336.234375 371.761719 327.808594 367.753906 325.054688 372.46875 C 316.3125 387.558594 314.5 423.871094 312.375 427.484375 C 312.375 429.6875 312.375 431.574219 312.375 433.144531 C 312.453125 442.027344 317.808594 448.390625 325.132812 452.871094 Z M 418.925781 311.089844 C 416.171875 309.203125 410.734375 315.648438 408.53125 319.339844 C 405.851562 323.976562 402.546875 333.410156 404.355469 336.238281 L 418.925781 327.90625 C 418.925781 322.25 418.925781 316.511719 418.925781 311.089844 Z M 344.582031 460.496094 L 363.25 454.050781 L 354.980469 442.417969 L 348.207031 446.347656 C 345.765625 447.761719 342.929688 447.371094 340.960938 445.878906 C 338.441406 445.640625 336.234375 447.527344 335.210938 449.257812 C 333.953125 451.378906 333.085938 455.78125 334.347656 457.351562 C 337.730469 458.609375 341.199219 459.710938 344.582031 460.496094 Z M 344.582031 460.496094 " fill-opacity="1" fill-rule="nonzero"/><path fill="#d3830f" d="M 340.960938 445.878906 C 338.441406 450.199219 336.234375 454.050781 334.347656 457.351562 C 333.714844 457.039062 328.28125 454.835938 325.132812 452.871094 L 338.441406 429.6875 L 338.441406 440.691406 C 338.441406 442.890625 339.464844 444.699219 340.960938 445.878906 Z M 334.347656 457.351562 C 334.425781 457.351562 334.425781 457.351562 334.347656 457.351562 Z M 404.355469 336.238281 C 409.554688 327.199219 414.515625 318.710938 418.925781 311.089844 C 418.925781 302.835938 418.925781 295.289062 418.925781 289.710938 L 386.085938 346.769531 Z M 345.609375 370.113281 C 360.808594 343.785156 378.921875 312.582031 394.59375 285.386719 C 378.132812 285.703125 365.609375 279.730469 365.609375 279.730469 C 352.460938 314.230469 312.375 341.109375 312.375 341.109375 C 312.375 341.109375 312.375 414.597656 312.375 433.144531 C 312.375 433.617188 312.375 434.167969 312.453125 434.636719 C 312.453125 434.167969 312.375 433.617188 312.375 433.144531 C 312.375 431.652344 312.375 429.6875 312.375 427.484375 C 315.128906 422.691406 325.210938 405.324219 338.363281 382.53125 L 338.363281 381.039062 C 338.363281 376.871094 340.644531 372.941406 344.269531 370.820312 Z M 344.582031 460.496094 C 345.292969 460.574219 365.609375 463.796875 365.609375 463.796875 C 385.140625 452.558594 398.6875 431.574219 407.191406 412.316406 L 354.980469 442.417969 Z M 344.582031 460.496094 Z M 478.226562 425.992188 L 476.96875 425.992188 L 476.96875 481.402344 C 477.359375 481.246094 477.832031 481.167969 478.226562 481.007812 Z M 474.367188 482.421875 C 474.917969 482.1875 475.390625 481.953125 475.945312 481.792969 L 475.945312 425.992188 L 474.367188 425.992188 Z M 471.296875 424.027344 L 471.296875 484.230469 C 471.691406 483.917969 472.085938 483.601562 472.398438 483.445312 C 472.558594 483.367188 472.714844 483.289062 472.871094 483.210938 L 472.871094 425.050781 C 472.398438 424.65625 471.925781 424.34375 471.296875 424.027344 C 471.375 424.027344 471.296875 424.027344 471.296875 424.027344 Z M 467.28125 485.488281 L 468.304688 486.824219 C 468.621094 486.589844 469.011719 486.195312 469.484375 485.804688 L 469.484375 432.203125 C 468.777344 431.886719 468.066406 431.574219 467.359375 431.257812 L 467.359375 485.488281 Z M 464.996094 482.503906 L 464.996094 430.867188 L 462.871094 430.867188 L 462.871094 480.222656 C 463.65625 481.085938 464.445312 482.03125 464.996094 482.503906 Z M 459.800781 436.054688 L 457.199219 436.054688 L 457.199219 476.765625 C 458.066406 477.15625 458.933594 477.550781 459.800781 478.023438 Z M 454.207031 438.804688 L 451.609375 438.804688 L 451.609375 474.722656 C 452.476562 474.957031 453.339844 475.273438 454.207031 475.507812 Z M 448.539062 438.804688 L 445.9375 438.804688 L 445.9375 473.542969 C 446.804688 473.621094 447.671875 473.777344 448.539062 473.933594 Z M 442.945312 434.796875 L 440.820312 434.796875 L 440.820312 473.308594 C 441.527344 473.308594 442.238281 473.308594 442.945312 473.308594 Z M 436.332031 473.621094 C 437.039062 473.542969 437.75 473.386719 438.457031 473.386719 L 438.457031 422.140625 C 437.75 422.457031 436.960938 422.769531 436.332031 423.085938 Z M 434.441406 424.027344 C 433.890625 424.34375 433.339844 424.65625 432.867188 425.050781 L 432.867188 474.40625 C 433.417969 474.25 433.890625 474.09375 434.441406 474.015625 Z M 431.371094 428.351562 L 429.792969 428.351562 L 429.792969 475.507812 C 430.34375 475.273438 430.816406 475.035156 431.371094 474.878906 Z M 427.511719 476.6875 C 427.90625 476.449219 428.375 476.214844 428.769531 476.058594 L 428.769531 425.992188 L 427.511719 425.992188 Z M 415.855469 510.480469 C 416.171875 511.269531 416.5625 511.976562 417.113281 512.761719 L 417.113281 498.457031 L 415.855469 498.457031 Z M 488.9375 516.375 C 489.804688 516.375 490.671875 516.375 491.457031 516.375 L 491.457031 504.746094 L 488.9375 504.746094 Z M 494.53125 516.140625 C 495.394531 516.0625 496.261719 515.984375 497.050781 515.824219 L 497.050781 499.320312 L 494.53125 499.320312 Z M 500.121094 515.277344 C 500.828125 515.117188 501.539062 514.882812 502.246094 514.726562 L 502.246094 498.457031 L 500.121094 498.457031 Z M 504.609375 513.859375 C 505.320312 513.546875 506.027344 513.3125 506.734375 512.917969 L 506.734375 497.828125 C 506.027344 497.511719 505.320312 497.199219 504.609375 496.886719 Z M 508.546875 495.707031 L 508.546875 512.054688 C 508.546875 512.054688 508.625 512.054688 508.625 512.054688 C 509.175781 511.738281 509.648438 511.425781 510.121094 511.109375 L 510.121094 496.804688 C 509.648438 496.335938 509.175781 496.019531 508.546875 495.707031 C 508.625 495.707031 508.546875 495.707031 508.546875 495.707031 Z M 511.617188 509.929688 C 512.171875 509.460938 512.722656 508.910156 513.195312 508.4375 L 513.195312 497.671875 L 511.617188 497.671875 Z M 514.21875 492.71875 L 514.21875 507.179688 C 514.769531 506.472656 515.164062 505.765625 515.476562 504.980469 L 515.476562 492.71875 Z M 483.269531 515.824219 C 484.132812 515.984375 485 516.0625 485.789062 516.140625 L 485.789062 503.878906 L 483.269531 503.878906 Z M 478.070312 514.648438 C 478.777344 514.882812 479.488281 515.039062 480.195312 515.199219 L 480.195312 503.015625 L 478.070312 503.015625 Z M 473.660156 512.917969 C 474.367188 513.234375 475.078125 513.546875 475.785156 513.859375 L 475.785156 497.984375 C 475.078125 498.300781 474.367188 498.613281 473.660156 498.929688 Z M 470.195312 500.894531 L 470.195312 511.03125 C 470.667969 511.347656 471.21875 511.738281 471.769531 512.054688 L 471.769531 499.871094 C 471.21875 500.1875 470.746094 500.5 470.195312 500.894531 Z M 301.113281 576.1875 C 301.976562 576.1875 302.84375 576.1875 303.632812 576.1875 L 303.632812 532.015625 L 301.113281 532.015625 Z M 295.519531 575.714844 C 296.386719 575.871094 297.253906 575.949219 298.039062 576.027344 L 298.039062 531.230469 L 295.519531 531.230469 Z M 290.324219 574.535156 C 291.03125 574.773438 291.742188 574.929688 292.449219 575.085938 L 292.449219 526.59375 L 290.324219 526.59375 Z M 285.914062 572.886719 C 286.621094 573.199219 287.332031 573.515625 288.039062 573.828125 L 288.039062 525.179688 C 287.332031 525.492188 286.621094 525.730469 285.914062 526.121094 Z M 282.449219 528.085938 L 282.449219 570.921875 C 282.921875 571.234375 283.472656 571.550781 283.945312 571.863281 C 283.945312 571.863281 284.023438 571.863281 284.023438 571.863281 L 284.023438 527.066406 C 284.023438 527.066406 283.945312 527.066406 283.945312 527.066406 C 283.472656 527.378906 282.921875 527.695312 282.449219 528.085938 Z M 279.375 568.25 C 279.847656 568.796875 280.398438 569.269531 280.953125 569.742188 L 280.953125 519.675781 L 279.375 519.675781 Z M 277.09375 564.789062 C 277.40625 565.578125 277.800781 566.285156 278.351562 566.992188 L 278.351562 519.675781 L 277.09375 519.675781 Z M 306.78125 576.027344 C 307.648438 575.949219 308.515625 575.871094 309.300781 575.714844 L 309.300781 531.230469 L 306.78125 531.230469 Z M 312.375 575.085938 C 313.082031 574.929688 313.792969 574.691406 314.5 574.535156 L 314.5 528.558594 L 312.375 528.558594 Z M 316.785156 573.75 C 317.492188 573.4375 318.203125 573.121094 318.910156 572.808594 L 318.910156 516.847656 C 318.203125 516.535156 317.492188 516.21875 316.785156 515.90625 Z M 320.800781 517.789062 L 320.800781 571.863281 C 321.351562 571.550781 321.902344 571.234375 322.375 570.84375 L 322.375 518.8125 C 321.902344 518.417969 321.351562 518.105469 320.800781 517.789062 Z M 327.730469 550.484375 L 327.730469 519.753906 L 326.46875 519.753906 L 326.46875 555.75 C 326.550781 554.023438 326.628906 552.058594 327.574219 550.644531 C 327.652344 550.566406 327.652344 550.484375 327.730469 550.484375 Z M 325.445312 555.75 L 325.996094 555.75 L 325.996094 570.214844 C 325.527344 569.585938 325.210938 568.957031 324.894531 568.328125 C 324.972656 568.40625 324.972656 568.5625 325.054688 568.640625 C 324.660156 569.035156 324.265625 569.347656 323.871094 569.742188 L 323.871094 519.753906 L 325.445312 519.753906 Z M 324.738281 555.75 L 324.027344 555.75 L 324.027344 564.398438 C 324.027344 565.578125 324.265625 566.753906 324.738281 567.933594 Z M 348.757812 579.410156 C 349.625 579.410156 350.488281 579.410156 351.277344 579.410156 L 351.277344 569.347656 L 348.757812 569.347656 Z M 343.167969 578.859375 C 344.03125 579.015625 344.898438 579.09375 345.6875 579.171875 L 345.6875 568.484375 L 343.167969 568.484375 Z M 337.96875 577.679688 C 338.675781 577.914062 339.386719 578.074219 340.09375 578.230469 L 340.09375 560.390625 L 337.96875 560.390625 Z M 333.480469 576.027344 C 334.1875 576.34375 334.898438 576.65625 335.605469 576.972656 L 335.605469 558.972656 C 334.898438 559.289062 334.1875 559.523438 333.480469 559.917969 Z M 330.09375 561.882812 L 330.09375 574.0625 C 330.566406 574.378906 331.117188 574.691406 331.589844 575.007812 C 331.589844 575.007812 331.667969 575.007812 331.667969 575.007812 L 331.667969 560.78125 C 331.667969 560.78125 331.589844 560.78125 331.589844 560.78125 C 331.039062 561.175781 330.566406 561.488281 330.09375 561.882812 Z M 327.023438 571.472656 C 327.496094 572.019531 328.046875 572.492188 328.597656 572.964844 L 328.597656 558.972656 L 327.023438 558.972656 Z M 354.347656 579.171875 C 355.214844 579.09375 356.082031 579.015625 356.871094 578.859375 L 356.871094 568.484375 L 354.347656 568.484375 Z M 359.941406 578.308594 C 360.648438 578.152344 361.359375 577.914062 362.066406 577.757812 L 362.066406 565.183594 L 359.941406 565.183594 Z M 364.429688 576.894531 C 365.136719 576.578125 365.847656 576.265625 366.554688 575.949219 L 366.554688 564.632812 C 365.847656 564.320312 365.136719 564.003906 364.429688 563.691406 Z M 368.445312 561.097656 L 368.445312 575.007812 C 368.996094 574.691406 369.546875 574.378906 370.019531 573.984375 L 370.019531 562.117188 C 369.46875 561.804688 368.996094 561.410156 368.445312 561.097656 Z M 371.4375 572.886719 C 371.988281 572.414062 372.539062 571.863281 373.011719 571.390625 L 373.011719 559.445312 L 371.4375 559.445312 Z M 374.117188 570.132812 C 374.667969 569.425781 375.0625 568.640625 375.375 567.855469 L 375.375 555.75 L 374.117188 555.75 Z M 468.460938 495.707031 C 468.460938 496.886719 468.226562 498.0625 467.753906 499.242188 L 467.753906 487.0625 L 466.492188 487.0625 L 466.492188 501.523438 C 466.730469 501.128906 466.964844 500.816406 467.203125 500.421875 L 467.203125 507.179688 C 467.203125 507.496094 467.203125 507.808594 467.125 508.125 L 467.125 508.4375 C 467.597656 508.988281 468.148438 509.460938 468.699219 509.929688 L 468.699219 492.796875 L 468.460938 492.796875 Z M 441.214844 510.640625 C 440.820312 510.640625 440.347656 510.640625 439.953125 510.640625 L 439.953125 522.035156 C 440.820312 522.035156 441.6875 522.035156 442.472656 522.035156 L 442.472656 510.640625 C 442.238281 510.640625 442.078125 510.640625 441.84375 510.640625 C 442.472656 510.640625 443.105469 510.640625 443.734375 510.640625 L 443.734375 496.414062 L 441.214844 496.414062 Z M 446.804688 510.480469 C 446.410156 510.558594 445.9375 510.558594 445.546875 510.640625 L 445.546875 521.957031 C 446.410156 521.878906 447.277344 521.800781 448.066406 521.640625 L 448.066406 510.402344 C 447.984375 510.402344 447.828125 510.402344 447.671875 510.402344 C 448.222656 510.324219 448.773438 510.246094 449.324219 510.167969 L 449.324219 495.628906 L 446.804688 495.628906 Z M 452.394531 509.539062 C 452.003906 509.617188 451.53125 509.773438 451.136719 509.851562 L 451.136719 521.011719 C 451.84375 520.855469 452.554688 520.621094 453.261719 520.464844 L 453.261719 509.382812 C 453.65625 509.304688 454.128906 509.144531 454.523438 509.066406 L 454.523438 492.40625 L 452.394531 492.40625 Z M 456.886719 508.203125 C 456.492188 508.359375 456.019531 508.515625 455.625 508.675781 L 455.625 519.675781 C 456.335938 519.363281 457.042969 519.128906 457.75 518.734375 L 457.75 507.886719 C 458.222656 507.730469 458.617188 507.496094 459.089844 507.339844 L 459.089844 491.855469 C 458.382812 491.539062 457.671875 491.226562 456.964844 490.910156 L 456.964844 508.203125 Z M 460.824219 488.710938 L 460.824219 506.316406 C 460.429688 506.550781 459.957031 506.789062 459.5625 506.945312 L 459.5625 517.710938 C 459.5625 517.710938 459.640625 517.710938 459.640625 517.710938 C 460.191406 517.398438 460.664062 517.082031 461.136719 516.769531 L 461.136719 506.160156 C 461.609375 505.921875 462.003906 505.609375 462.398438 505.375 L 462.398438 489.734375 C 461.925781 489.417969 461.453125 489.105469 460.824219 488.710938 C 460.902344 488.710938 460.824219 488.710938 460.824219 488.710938 Z M 465.46875 490.675781 L 463.894531 490.675781 L 463.894531 504.195312 C 463.5 504.507812 463.105469 504.824219 462.632812 505.214844 L 462.632812 515.667969 C 463.1875 515.199219 463.738281 514.648438 464.210938 514.175781 L 464.210938 503.957031 C 464.128906 504.035156 464.050781 504.117188 463.894531 504.195312 C 464.367188 503.800781 464.839844 503.328125 465.234375 502.9375 C 465.234375 502.9375 465.15625 503.015625 465.15625 503.015625 L 465.15625 512.917969 C 465.707031 512.210938 466.097656 511.503906 466.414062 510.71875 L 466.414062 501.523438 C 466.097656 501.914062 465.785156 502.308594 465.390625 502.699219 L 465.390625 490.675781 Z M 435.542969 510.089844 C 435.148438 510.011719 434.675781 509.929688 434.285156 509.851562 L 434.285156 521.484375 C 435.148438 521.640625 436.015625 521.71875 436.804688 521.800781 L 436.804688 510.246094 C 436.726562 510.246094 436.566406 510.246094 436.488281 510.167969 C 437.039062 510.246094 437.511719 510.324219 438.0625 510.402344 L 438.0625 498.0625 L 435.542969 498.0625 Z M 430.34375 508.910156 C 429.953125 508.753906 429.480469 508.675781 429.085938 508.515625 L 429.085938 520.382812 C 429.792969 520.621094 430.503906 520.777344 431.210938 520.933594 L 431.210938 509.222656 C 431.605469 509.304688 432.078125 509.460938 432.472656 509.539062 L 432.472656 497.277344 L 430.34375 497.277344 Z M 425.933594 507.257812 C 425.542969 507.023438 425.070312 506.867188 424.675781 506.628906 L 424.675781 518.734375 C 425.382812 519.046875 426.09375 519.363281 426.800781 519.675781 L 426.800781 507.730469 C 426.800781 507.730469 426.722656 507.730469 426.722656 507.652344 C 427.195312 507.886719 427.589844 508.046875 428.0625 508.203125 L 428.0625 489.734375 C 427.351562 490.046875 426.644531 490.363281 425.933594 490.675781 Z M 422.46875 492.5625 L 422.46875 505.292969 C 421.996094 504.980469 421.605469 504.664062 421.210938 504.351562 L 421.210938 516.691406 C 421.683594 517.003906 422.234375 517.398438 422.785156 517.710938 L 422.785156 505.53125 C 422.785156 505.53125 422.707031 505.53125 422.707031 505.453125 C 423.101562 505.765625 423.574219 506 424.046875 506.316406 L 424.046875 491.617188 C 423.496094 491.933594 423.023438 492.246094 422.46875 492.5625 Z M 419.398438 502.621094 C 419.003906 502.230469 418.691406 501.757812 418.375 501.363281 L 418.375 487.0625 L 417.113281 487.0625 L 417.113281 499.164062 C 417.429688 499.871094 417.746094 500.5 418.21875 501.207031 C 418.21875 501.128906 418.140625 501.128906 418.058594 501.050781 L 418.058594 514.097656 C 418.53125 514.648438 419.082031 515.117188 419.636719 515.589844 L 419.636719 503.015625 C 419.636719 503.015625 419.636719 502.9375 419.554688 502.9375 C 419.949219 503.328125 420.421875 503.800781 420.894531 504.195312 L 420.894531 489.339844 L 419.320312 489.339844 L 419.320312 502.621094 Z M 419.398438 502.621094 " fill-opacity="1" fill-rule="nonzero"/><path fill="#fecf47" d="M 345.609375 401.078125 C 346.394531 396.597656 349.074219 391.882812 352.539062 388.816406 C 351.199219 388.660156 350.253906 387.402344 350.253906 385.4375 C 350.253906 382.453125 352.378906 378.757812 354.980469 377.265625 C 357.578125 375.769531 359.703125 377.027344 359.703125 380.015625 C 359.703125 381.980469 358.757812 384.257812 357.421875 385.988281 C 360.019531 385.28125 362.144531 386.066406 363.40625 387.953125 C 364.746094 389.917969 364.035156 392.667969 361.910156 393.847656 L 347.261719 402.257812 C 346.472656 402.808594 345.449219 402.101562 345.609375 401.078125 Z M 360.964844 407.523438 L 360.964844 406.03125 C 360.964844 402.179688 358.207031 400.605469 354.898438 402.492188 C 351.515625 404.457031 348.835938 409.175781 348.835938 413.023438 L 348.835938 424.972656 C 348.835938 426.386719 350.332031 427.25 351.59375 426.542969 L 358.367188 422.691406 C 360.019531 421.75 361.121094 419.941406 361.121094 417.976562 L 361.121094 409.332031 C 360.726562 409.566406 360.253906 409.800781 359.78125 410.117188 L 359.46875 410.273438 C 359.46875 410.273438 359.390625 410.273438 359.390625 410.351562 L 357.183594 411.609375 C 357.183594 411.609375 357.183594 411.609375 357.105469 411.609375 L 355.925781 412.316406 L 350.882812 415.226562 L 350.882812 412.238281 C 350.882812 409.410156 352.851562 406.03125 355.292969 404.617188 C 357.734375 403.199219 359.703125 404.378906 359.703125 407.128906 L 359.703125 408.308594 C 360.019531 408.074219 360.492188 407.757812 360.964844 407.523438 Z M 320.800781 530.601562 C 310.640625 536.417969 294.101562 536.417969 283.945312 530.601562 C 273.785156 524.785156 273.785156 515.199219 283.945312 509.382812 C 294.101562 503.566406 310.640625 503.566406 320.800781 509.382812 C 330.960938 515.277344 330.960938 524.785156 320.800781 530.601562 Z M 289.0625 519.441406 L 299.535156 521.71875 L 301.425781 520.621094 L 289.0625 517.949219 L 288.433594 518.339844 C 288.195312 518.5 287.882812 518.578125 287.722656 518.578125 C 287.488281 518.578125 287.25 518.5 287.09375 518.339844 C 286.9375 518.183594 286.777344 518.105469 286.777344 517.949219 L 286.777344 519.441406 C 286.777344 519.597656 286.859375 519.753906 287.09375 519.835938 C 287.25 519.992188 287.488281 520.070312 287.722656 520.070312 C 287.960938 520.070312 288.195312 519.992188 288.433594 519.835938 Z M 291.820312 517.476562 L 291.820312 516.140625 C 291.820312 516.296875 291.660156 516.453125 291.425781 516.613281 L 290.402344 517.242188 Z M 300.71875 511.109375 C 300.640625 511.1875 300.5625 511.347656 300.324219 511.425781 L 299.695312 511.816406 L 300.246094 512.996094 L 300.324219 512.917969 C 300.5625 512.761719 300.71875 512.605469 300.71875 512.445312 C 300.71875 512.445312 300.71875 512.367188 300.71875 512.367188 C 300.640625 512.445312 300.640625 511.425781 300.71875 511.109375 Z M 298.355469 512.523438 L 297.332031 513.152344 C 297.09375 513.3125 296.859375 513.390625 296.625 513.390625 C 296.386719 513.390625 296.152344 513.3125 295.992188 513.152344 C 295.835938 512.996094 295.679688 512.917969 295.679688 512.761719 L 295.679688 514.253906 C 295.679688 514.410156 295.757812 514.570312 295.992188 514.648438 C 296.152344 514.804688 296.386719 514.882812 296.625 514.882812 C 296.859375 514.882812 297.09375 514.804688 297.332031 514.648438 L 298.355469 514.019531 L 300.875 519.441406 L 301.664062 519.597656 Z M 299.222656 524.472656 L 302.765625 522.429688 L 303.945312 523.214844 L 305.207031 522.507812 L 302.765625 520.933594 L 299.222656 522.976562 C 299.066406 523.058594 298.828125 523.136719 298.671875 523.136719 C 298.511719 523.136719 298.355469 523.058594 298.199219 522.976562 C 298.039062 522.898438 297.960938 522.820312 297.960938 522.664062 L 297.960938 524.15625 C 297.960938 524.234375 298.039062 524.394531 298.199219 524.472656 C 298.355469 524.550781 298.511719 524.628906 298.671875 524.628906 C 298.828125 524.628906 299.066406 524.628906 299.222656 524.472656 Z M 307.570312 518.027344 C 307.570312 518.105469 307.492188 518.261719 307.332031 518.339844 L 303.789062 520.382812 L 305.050781 521.171875 L 307.332031 519.835938 C 307.492188 519.753906 307.570312 519.597656 307.570312 519.519531 Z M 307.175781 522.507812 L 308.4375 523.292969 L 310.71875 521.957031 C 310.878906 521.878906 310.957031 521.71875 310.957031 521.640625 L 310.957031 520.148438 C 310.957031 520.226562 310.878906 520.382812 310.71875 520.464844 Z M 306.152344 524.707031 L 308.199219 526.042969 L 309.460938 525.335938 L 306.230469 523.214844 L 302.6875 525.257812 C 302.53125 525.335938 302.292969 525.414062 302.136719 525.414062 C 301.976562 525.414062 301.820312 525.335938 301.664062 525.257812 C 301.503906 525.179688 301.425781 525.101562 301.425781 524.941406 L 301.425781 526.4375 C 301.425781 526.515625 301.503906 526.671875 301.664062 526.75 C 301.820312 526.828125 301.976562 526.90625 302.136719 526.90625 C 302.292969 526.90625 302.449219 526.828125 302.6875 526.75 Z M 314.421875 523.683594 C 314.421875 523.84375 314.34375 524 314.027344 524.15625 L 308.277344 527.457031 C 308.042969 527.617188 307.804688 527.695312 307.570312 527.695312 C 307.332031 527.695312 307.097656 527.613281 306.941406 527.457031 C 306.78125 527.300781 306.625 527.222656 306.625 527.066406 L 306.625 528.558594 C 306.625 528.714844 306.703125 528.871094 306.941406 528.953125 C 307.097656 529.109375 307.332031 529.109375 307.570312 529.1875 C 307.804688 529.1875 308.042969 529.109375 308.277344 528.953125 L 314.027344 525.648438 C 314.265625 525.492188 314.421875 525.335938 314.421875 525.179688 Z M 318.121094 510.953125 C 309.460938 506 295.363281 506 286.699219 510.953125 C 281.894531 513.703125 279.769531 517.398438 280.320312 521.011719 C 280.714844 518.105469 282.839844 515.199219 286.699219 512.996094 C 295.363281 508.046875 309.460938 508.046875 318.121094 512.996094 C 321.980469 515.199219 324.109375 518.105469 324.5 521.011719 C 325.054688 517.398438 322.925781 513.703125 318.121094 510.953125 Z M 368.445312 566.675781 C 358.285156 572.492188 341.75 572.492188 331.589844 566.675781 C 321.429688 560.859375 321.429688 551.273438 331.589844 545.457031 C 341.75 539.640625 358.285156 539.640625 368.445312 545.457031 C 378.527344 551.273438 378.527344 560.78125 368.445312 566.675781 Z M 336.707031 555.4375 L 347.183594 557.714844 L 349.074219 556.617188 L 336.707031 553.945312 L 336.078125 554.335938 C 335.84375 554.496094 335.527344 554.574219 335.371094 554.574219 C 335.132812 554.574219 334.898438 554.496094 334.738281 554.335938 C 334.582031 554.179688 334.425781 554.101562 334.425781 553.945312 L 334.425781 555.4375 C 334.425781 555.59375 334.503906 555.75 334.738281 555.832031 C 334.898438 555.988281 335.132812 556.066406 335.371094 556.066406 C 335.605469 556.066406 335.84375 555.988281 336.078125 555.832031 Z M 339.386719 553.550781 L 339.386719 552.214844 C 339.386719 552.371094 339.226562 552.53125 338.992188 552.6875 L 337.96875 553.316406 Z M 348.285156 547.105469 C 348.207031 547.183594 348.128906 547.34375 347.890625 547.421875 L 347.261719 547.8125 L 347.8125 548.992188 L 347.890625 548.914062 C 348.128906 548.757812 348.285156 548.601562 348.285156 548.441406 C 348.285156 548.441406 348.285156 548.363281 348.285156 548.363281 C 348.285156 548.441406 348.285156 547.421875 348.285156 547.105469 Z M 346 548.601562 L 344.976562 549.230469 C 344.742188 549.386719 344.503906 549.464844 344.269531 549.464844 C 344.03125 549.464844 343.796875 549.386719 343.636719 549.230469 C 343.480469 549.070312 343.324219 548.992188 343.324219 548.835938 L 343.324219 550.328125 C 343.324219 550.484375 343.402344 550.644531 343.636719 550.722656 C 343.796875 550.878906 344.03125 550.957031 344.269531 550.957031 C 344.503906 550.957031 344.742188 550.878906 344.976562 550.722656 L 346 550.09375 L 348.519531 555.515625 L 349.308594 555.671875 Z M 346.867188 560.546875 L 350.410156 558.503906 L 351.59375 559.289062 L 352.851562 558.582031 L 350.410156 557.007812 L 346.867188 559.054688 C 346.710938 559.132812 346.472656 559.210938 346.316406 559.210938 C 346.160156 559.210938 346 559.132812 345.84375 559.054688 C 345.6875 558.972656 345.609375 558.894531 345.609375 558.738281 L 345.609375 560.230469 C 345.609375 560.308594 345.6875 560.46875 345.84375 560.546875 C 346 560.625 346.160156 560.703125 346.316406 560.703125 C 346.472656 560.703125 346.632812 560.625 346.867188 560.546875 Z M 355.214844 555.515625 L 355.214844 554.023438 C 355.214844 554.101562 355.136719 554.257812 354.980469 554.335938 L 351.433594 556.378906 L 352.695312 557.167969 L 354.980469 555.832031 C 355.136719 555.75 355.214844 555.671875 355.214844 555.515625 Z M 358.601562 557.714844 L 358.601562 556.222656 C 358.601562 556.300781 358.523438 556.460938 358.367188 556.539062 L 354.820312 558.582031 L 356.082031 559.367188 L 358.367188 558.03125 C 358.523438 557.953125 358.601562 557.875 358.601562 557.714844 Z M 353.71875 560.703125 L 355.765625 562.039062 L 357.027344 561.332031 L 353.796875 559.210938 L 350.253906 561.253906 C 350.097656 561.332031 349.859375 561.410156 349.703125 561.410156 C 349.546875 561.410156 349.386719 561.332031 349.230469 561.253906 C 349.074219 561.175781 348.992188 561.097656 348.992188 560.9375 L 348.992188 562.433594 C 348.992188 562.511719 349.074219 562.667969 349.230469 562.746094 C 349.386719 562.824219 349.546875 562.902344 349.703125 562.902344 C 349.859375 562.902344 350.019531 562.824219 350.253906 562.746094 Z M 362.066406 559.761719 C 362.066406 559.917969 361.988281 560.074219 361.671875 560.230469 L 355.925781 563.53125 C 355.6875 563.691406 355.453125 563.769531 355.214844 563.769531 C 354.980469 563.769531 354.742188 563.691406 354.585938 563.53125 C 354.429688 563.375 354.269531 563.296875 354.269531 563.140625 L 354.269531 564.632812 C 354.269531 564.789062 354.347656 564.949219 354.585938 565.027344 C 354.742188 565.183594 354.980469 565.183594 355.214844 565.261719 C 355.453125 565.261719 355.6875 565.183594 355.925781 565.027344 L 361.671875 561.726562 C 361.910156 561.566406 362.066406 561.410156 362.066406 561.253906 Z M 365.769531 546.949219 C 357.105469 541.996094 343.007812 541.996094 334.347656 546.949219 C 329.542969 549.699219 327.414062 553.394531 327.96875 557.007812 C 328.359375 554.101562 330.488281 551.195312 334.347656 548.992188 C 343.007812 544.042969 357.105469 544.042969 365.769531 548.992188 C 369.628906 551.195312 371.753906 554.101562 372.148438 557.007812 C 372.621094 553.472656 370.492188 549.699219 365.769531 546.949219 Z M 460.902344 506.316406 C 450.742188 512.132812 434.203125 512.132812 424.046875 506.316406 C 418.925781 503.328125 416.40625 499.476562 416.484375 495.546875 L 416.484375 494.054688 C 413.570312 499.242188 415.617188 505.214844 422.785156 509.304688 C 432.945312 515.117188 449.484375 515.117188 459.640625 509.304688 C 463.816406 506.945312 466.257812 503.878906 466.964844 500.734375 C 465.707031 502.78125 463.738281 504.664062 460.902344 506.316406 Z M 508.625 503.566406 C 498.46875 509.382812 481.929688 509.382812 471.769531 503.566406 C 469.957031 502.542969 468.460938 501.363281 467.28125 500.105469 C 468.066406 498.691406 468.460938 497.199219 468.460938 495.707031 L 468.460938 492.40625 C 469.328125 490.046875 471.296875 487.769531 474.449219 485.960938 C 483.109375 481.007812 497.207031 481.007812 505.871094 485.960938 C 509.730469 488.160156 511.855469 491.070312 512.25 493.976562 C 512.722656 490.363281 510.59375 486.667969 505.871094 483.917969 C 497.207031 478.964844 483.109375 478.964844 474.449219 483.917969 C 471.296875 485.722656 469.328125 488.003906 468.460938 490.363281 L 468.460938 486.980469 C 468.460938 487.0625 468.460938 487.140625 468.460938 487.296875 C 468.460938 491.148438 465.941406 495 460.902344 497.90625 C 450.742188 503.722656 434.203125 503.722656 424.046875 497.90625 C 413.886719 492.089844 413.886719 482.503906 424.046875 476.6875 C 434.203125 470.871094 450.742188 470.871094 460.902344 476.6875 C 464.917969 479.042969 467.359375 481.953125 468.148438 485.015625 C 469.171875 484.074219 470.351562 483.210938 471.769531 482.421875 C 481.929688 476.609375 498.46875 476.609375 508.625 482.421875 C 518.785156 488.238281 518.785156 497.75 508.625 503.566406 Z M 438.222656 494.371094 C 438.222656 494.527344 438.140625 494.683594 437.90625 494.761719 C 437.75 494.921875 437.511719 494.921875 437.277344 495 C 437.039062 495 436.804688 494.921875 436.566406 494.761719 L 430.816406 491.460938 C 430.582031 491.304688 430.425781 491.148438 430.425781 490.992188 L 430.425781 492.484375 C 430.425781 492.640625 430.503906 492.796875 430.816406 492.957031 L 436.566406 496.257812 C 436.804688 496.414062 437.039062 496.492188 437.277344 496.492188 C 437.511719 496.492188 437.75 496.414062 437.90625 496.257812 C 438.0625 496.097656 438.222656 496.019531 438.222656 495.863281 Z M 434.203125 487.847656 C 434.046875 487.769531 433.96875 487.609375 433.96875 487.53125 L 433.96875 489.027344 C 433.96875 489.105469 434.046875 489.261719 434.203125 489.339844 L 436.488281 490.675781 L 437.75 489.890625 Z M 437.511719 487.140625 L 439.796875 488.476562 L 441.054688 487.6875 L 437.511719 485.644531 C 437.355469 485.566406 437.277344 485.410156 437.277344 485.332031 L 437.277344 486.824219 C 437.277344 486.902344 437.355469 487.0625 437.511719 487.140625 Z M 443.496094 492.167969 C 443.496094 492.246094 443.417969 492.40625 443.261719 492.484375 C 443.105469 492.5625 442.945312 492.640625 442.789062 492.640625 C 442.632812 492.640625 442.472656 492.5625 442.238281 492.484375 L 438.695312 490.441406 L 435.464844 492.5625 L 436.726562 493.269531 L 438.773438 491.933594 L 442.316406 493.976562 C 442.472656 494.054688 442.710938 494.132812 442.867188 494.132812 C 443.023438 494.132812 443.183594 494.054688 443.339844 493.976562 C 443.496094 493.898438 443.574219 493.820312 443.574219 493.664062 L 443.574219 492.167969 Z M 446.882812 489.96875 C 446.882812 490.046875 446.804688 490.203125 446.648438 490.28125 C 446.488281 490.363281 446.332031 490.441406 446.175781 490.441406 C 446.015625 490.441406 445.859375 490.363281 445.625 490.28125 L 442.078125 488.238281 L 439.636719 489.8125 L 440.898438 490.519531 L 442.078125 489.734375 L 445.625 491.777344 C 445.78125 491.855469 446.015625 491.933594 446.175781 491.933594 C 446.332031 491.933594 446.488281 491.855469 446.648438 491.777344 C 446.804688 491.699219 446.882812 491.617188 446.882812 491.460938 Z M 444.207031 479.75 C 444.207031 479.75 444.207031 479.828125 444.207031 479.75 C 444.207031 479.988281 444.285156 480.066406 444.601562 480.222656 L 444.679688 480.300781 L 445.230469 479.121094 L 444.601562 478.730469 C 444.363281 478.652344 444.285156 478.492188 444.207031 478.414062 C 444.207031 478.730469 444.207031 479.75 444.207031 479.75 Z M 443.183594 486.902344 L 443.96875 486.746094 L 446.488281 481.324219 L 447.515625 481.953125 C 447.75 482.109375 447.984375 482.1875 448.222656 482.1875 C 448.457031 482.1875 448.695312 482.109375 448.851562 481.953125 C 449.011719 481.792969 449.167969 481.714844 449.167969 481.558594 L 449.167969 480.066406 C 449.167969 480.222656 449.089844 480.378906 448.851562 480.457031 C 448.695312 480.617188 448.457031 480.695312 448.222656 480.695312 C 447.984375 480.695312 447.75 480.617188 447.515625 480.457031 L 446.488281 479.828125 Z M 458.144531 485.175781 C 458.144531 485.332031 458.066406 485.488281 457.832031 485.566406 C 457.671875 485.722656 457.4375 485.804688 457.199219 485.804688 C 456.964844 485.804688 456.726562 485.722656 456.492188 485.566406 L 455.863281 485.175781 L 443.496094 487.847656 L 445.386719 488.945312 L 455.863281 486.667969 L 456.492188 487.0625 C 456.726562 487.21875 457.042969 487.296875 457.199219 487.296875 C 457.4375 487.296875 457.671875 487.21875 457.832031 487.0625 C 457.988281 486.902344 458.144531 486.824219 458.144531 486.667969 Z M 454.523438 484.46875 L 453.5 483.839844 C 453.261719 483.679688 453.105469 483.523438 453.105469 483.367188 L 453.105469 484.703125 Z M 458.222656 478.257812 C 449.5625 473.308594 435.464844 473.308594 426.800781 478.257812 C 421.996094 481.007812 419.871094 484.703125 420.421875 488.316406 C 420.816406 485.410156 422.941406 482.503906 426.800781 480.300781 C 435.464844 475.351562 449.5625 475.351562 458.222656 480.300781 C 462.082031 482.503906 464.210938 485.410156 464.601562 488.316406 C 465.15625 484.703125 463.027344 481.007812 458.222656 478.257812 Z M 500.828125 490.441406 L 502.246094 490.125 L 501.222656 489.496094 C 500.988281 489.339844 500.828125 489.183594 500.828125 489.027344 Z M 491.929688 485.410156 C 491.929688 485.488281 491.929688 485.488281 491.929688 485.410156 C 491.929688 485.644531 492.007812 485.722656 492.324219 485.882812 L 492.402344 485.960938 L 492.953125 484.78125 L 492.324219 484.386719 C 492.089844 484.308594 492.007812 484.152344 491.929688 484.074219 C 491.929688 484.386719 491.929688 485.410156 491.929688 485.410156 Z M 490.90625 492.5625 L 491.695312 492.40625 L 494.214844 486.980469 L 495.238281 487.609375 C 495.472656 487.769531 495.710938 487.847656 495.945312 487.847656 C 496.183594 487.847656 496.417969 487.769531 496.578125 487.609375 C 496.734375 487.453125 496.890625 487.375 496.890625 487.21875 L 496.890625 485.722656 C 496.890625 485.882812 496.8125 486.039062 496.578125 486.117188 C 496.417969 486.273438 496.183594 486.351562 495.945312 486.351562 C 495.710938 486.351562 495.472656 486.273438 495.238281 486.117188 L 494.214844 485.488281 Z M 485 492.484375 C 485 492.5625 485.078125 492.71875 485.238281 492.796875 L 487.519531 494.132812 L 488.78125 493.347656 L 485.238281 491.304688 C 485.078125 491.226562 485 491.070312 485 490.992188 Z M 481.613281 494.683594 C 481.613281 494.761719 481.691406 494.921875 481.851562 495 L 484.132812 496.335938 L 485.394531 495.550781 L 481.851562 493.503906 C 481.691406 493.425781 481.613281 493.269531 481.613281 493.191406 Z M 485.945312 500.027344 C 485.945312 500.1875 485.867188 500.34375 485.628906 500.421875 C 485.472656 500.578125 485.238281 500.578125 485 500.65625 C 484.765625 500.65625 484.527344 500.578125 484.292969 500.421875 L 478.542969 497.121094 C 478.304688 496.964844 478.148438 496.804688 478.148438 496.648438 L 478.148438 498.140625 C 478.148438 498.300781 478.226562 498.457031 478.542969 498.613281 L 484.292969 501.914062 C 484.527344 502.070312 484.765625 502.152344 485 502.152344 C 485.238281 502.152344 485.472656 502.070312 485.628906 501.914062 C 485.789062 501.757812 485.945312 501.679688 485.945312 501.523438 Z M 491.222656 497.90625 C 491.222656 497.984375 491.144531 498.140625 490.984375 498.222656 C 490.828125 498.300781 490.671875 498.378906 490.511719 498.378906 C 490.355469 498.378906 490.199219 498.300781 489.960938 498.222656 L 486.417969 496.175781 L 483.1875 498.300781 L 484.449219 499.007812 L 486.496094 497.671875 L 490.039062 499.714844 C 490.199219 499.792969 490.433594 499.871094 490.589844 499.871094 C 490.75 499.871094 490.90625 499.792969 491.0625 499.714844 C 491.222656 499.636719 491.300781 499.558594 491.300781 499.398438 L 491.300781 497.90625 Z M 494.609375 495.707031 C 494.609375 495.785156 494.53125 495.941406 494.371094 496.019531 C 494.214844 496.097656 494.058594 496.175781 493.898438 496.175781 C 493.742188 496.175781 493.585938 496.097656 493.347656 496.019531 L 489.804688 493.976562 L 487.363281 495.546875 L 488.621094 496.257812 L 489.804688 495.46875 L 493.347656 497.511719 C 493.503906 497.59375 493.742188 497.671875 493.898438 497.671875 C 494.058594 497.671875 494.214844 497.59375 494.371094 497.511719 C 494.53125 497.433594 494.609375 497.355469 494.609375 497.199219 Z M 505.871094 490.832031 C 505.871094 490.992188 505.789062 491.148438 505.554688 491.226562 C 505.398438 491.382812 505.160156 491.460938 504.925781 491.460938 C 504.6875 491.460938 504.453125 491.382812 504.214844 491.226562 L 503.585938 490.832031 L 491.222656 493.503906 L 493.113281 494.605469 L 503.585938 492.328125 L 504.214844 492.71875 C 504.453125 492.875 504.765625 492.957031 504.925781 492.957031 C 505.160156 492.957031 505.398438 492.875 505.554688 492.71875 C 505.710938 492.5625 505.871094 492.484375 505.871094 492.328125 Z M 434.441406 415.617188 C 444.601562 409.800781 461.21875 409.800781 471.375 415.617188 C 481.535156 421.433594 481.535156 431.023438 471.375 436.917969 C 461.21875 442.8125 444.601562 442.734375 434.441406 436.917969 C 424.28125 431.101562 424.359375 421.511719 434.441406 415.617188 Z M 448.617188 433.300781 C 448.617188 433.460938 448.539062 433.617188 448.300781 433.695312 C 448.144531 433.851562 447.90625 433.851562 447.671875 433.929688 C 447.433594 433.929688 447.199219 433.851562 446.960938 433.695312 L 441.214844 430.394531 C 440.976562 430.238281 440.820312 430.078125 440.820312 429.921875 L 440.820312 431.414062 C 440.820312 431.574219 440.898438 431.730469 441.214844 431.886719 L 446.960938 435.1875 C 447.199219 435.347656 447.433594 435.425781 447.671875 435.425781 C 447.90625 435.425781 448.144531 435.34375 448.300781 435.1875 C 448.457031 435.03125 448.617188 434.953125 448.617188 434.796875 Z M 444.601562 426.777344 C 444.441406 426.699219 444.363281 426.542969 444.363281 426.464844 L 444.363281 427.957031 C 444.363281 428.035156 444.441406 428.195312 444.601562 428.273438 L 446.882812 429.609375 L 448.144531 428.824219 Z M 447.984375 426.070312 L 450.269531 427.40625 L 451.53125 426.621094 L 447.984375 424.578125 C 447.828125 424.5 447.75 424.34375 447.75 424.265625 L 447.75 425.757812 C 447.671875 425.835938 447.75 425.992188 447.984375 426.070312 Z M 453.894531 431.179688 C 453.894531 431.257812 453.8125 431.414062 453.65625 431.496094 C 453.5 431.574219 453.339844 431.652344 453.183594 431.652344 C 453.027344 431.652344 452.867188 431.574219 452.632812 431.496094 L 449.089844 429.449219 L 445.859375 431.574219 L 447.121094 432.28125 L 449.167969 430.945312 L 452.710938 432.988281 C 452.867188 433.066406 453.105469 433.144531 453.261719 433.144531 C 453.421875 433.144531 453.578125 433.066406 453.734375 432.988281 C 453.894531 432.910156 453.972656 432.832031 453.972656 432.671875 L 453.972656 431.179688 Z M 457.277344 428.980469 C 457.277344 429.058594 457.199219 429.214844 457.042969 429.292969 C 456.886719 429.371094 456.726562 429.449219 456.570312 429.449219 C 456.414062 429.449219 456.253906 429.371094 456.019531 429.292969 L 452.476562 427.25 L 450.035156 428.824219 L 451.292969 429.53125 L 452.554688 428.742188 L 456.097656 430.789062 C 456.253906 430.867188 456.492188 430.945312 456.648438 430.945312 C 456.804688 430.945312 456.964844 430.867188 457.121094 430.789062 C 457.277344 430.707031 457.359375 430.628906 457.359375 430.472656 L 457.359375 428.980469 Z M 454.601562 418.683594 C 454.601562 418.683594 454.601562 418.761719 454.601562 418.683594 C 454.601562 418.917969 454.679688 419 454.996094 419.15625 L 455.074219 419.234375 L 455.625 418.054688 L 454.996094 417.660156 C 454.757812 417.582031 454.679688 417.425781 454.601562 417.347656 C 454.679688 417.660156 454.601562 418.683594 454.601562 418.683594 Z M 453.65625 425.835938 L 454.445312 425.679688 L 456.964844 420.253906 L 457.988281 420.882812 C 458.222656 421.042969 458.460938 421.121094 458.695312 421.121094 C 458.933594 421.121094 459.167969 421.042969 459.328125 420.882812 C 459.484375 420.726562 459.640625 420.648438 459.640625 420.492188 L 459.640625 419 C 459.640625 419.15625 459.5625 419.3125 459.328125 419.390625 C 459.089844 419.546875 458.933594 419.625 458.695312 419.625 C 458.460938 419.625 458.222656 419.546875 457.988281 419.390625 L 456.964844 418.761719 Z M 468.621094 424.105469 C 468.621094 424.265625 468.539062 424.421875 468.304688 424.5 C 468.066406 424.65625 467.910156 424.734375 467.675781 424.734375 C 467.4375 424.734375 467.203125 424.65625 466.886719 424.5 L 466.257812 424.105469 L 453.8125 426.777344 L 455.703125 427.878906 L 466.179688 425.601562 L 466.808594 425.992188 C 467.042969 426.148438 467.359375 426.230469 467.597656 426.230469 C 467.832031 426.230469 468.066406 426.148438 468.226562 425.992188 C 468.382812 425.835938 468.539062 425.757812 468.539062 425.601562 L 468.539062 424.105469 Z M 464.996094 423.398438 L 463.972656 422.769531 C 463.738281 422.613281 463.578125 422.457031 463.578125 422.300781 L 463.578125 423.636719 Z M 430.738281 427.328125 C 431.132812 424.421875 433.257812 421.511719 437.195312 419.3125 C 445.859375 414.28125 460.035156 414.28125 468.699219 419.3125 C 472.558594 421.511719 474.683594 424.421875 475.15625 427.328125 C 475.628906 423.714844 473.503906 419.941406 468.699219 417.191406 C 460.035156 412.160156 445.859375 412.160156 437.195312 417.191406 C 432.394531 419.941406 430.265625 423.636719 430.738281 427.328125 Z M 430.738281 427.328125 " fill-opacity="1" fill-rule="nonzero"/></svg>