<svg xmlns="http://www.w3.org/2000/svg" xmlns:xlink="http://www.w3.org/1999/xlink" width="1080" zoomAndPan="magnify" viewBox="0 0 810 809.999993" height="1080" preserveAspectRatio="xMidYMid meet" version="1.0"><defs><clipPath id="e3b7d72ce2"><path d="M 159.832031 22 L 520 22 L 520 751 L 159.832031 751 Z M 159.832031 22 " clip-rule="nonzero"/></clipPath></defs><g clip-path="url(#e3b7d72ce2)"><path fill="#182d88" d="M 519.097656 284.722656 L 519.097656 392.539062 C 519.097656 404.757812 512.523438 416.058594 501.980469 422.167969 L 488.53125 429.957031 L 436.261719 541.894531 C 436.261719 560.832031 426.171875 578.242188 409.820312 587.710938 L 247.96875 681.019531 C 249.496094 684.378906 250.414062 687.890625 250.871094 691.402344 C 251.636719 698.734375 249.804688 706.367188 245.828125 712.476562 C 243.230469 716.601562 239.714844 719.960938 236.507812 723.472656 C 231.003906 729.277344 225.960938 735.382812 220.765625 741.644531 C 218.167969 744.851562 215.109375 747.449219 212.511719 750.65625 L 170.480469 726.527344 C 164.367188 723.167969 159.9375 716.90625 159.9375 708.964844 L 159.9375 203.480469 C 159.9375 179.808594 172.621094 157.820312 193.101562 145.90625 L 399.425781 26.941406 C 409.972656 20.835938 422.046875 21.75 431.21875 27.25 L 472.941406 51.378906 C 470.035156 54.125 468.050781 58.097656 466.980469 62.066406 C 461.785156 82.835938 450.933594 102.078125 436.261719 117.503906 L 488.53125 278.921875 L 498.769531 272.964844 C 507.785156 267.773438 519.097656 274.339844 519.097656 284.722656 Z M 519.097656 284.722656 " fill-opacity="1" fill-rule="nonzero"/></g><path fill="#d2e7fe" d="M 513.289062 309.3125 L 513.289062 322.445312 C 513.289062 327.027344 510.84375 331.300781 506.871094 333.59375 L 371 411.933594 C 367.484375 413.921875 363.207031 411.476562 363.207031 407.507812 L 363.207031 394.832031 C 363.207031 390.859375 365.34375 387.195312 368.859375 385.058594 L 506.71875 305.492188 C 509.621094 303.8125 513.289062 305.953125 513.289062 309.3125 Z M 506.71875 358.179688 L 368.859375 437.746094 C 365.34375 439.730469 363.207031 443.394531 363.207031 447.519531 L 363.207031 460.191406 C 363.207031 464.164062 367.484375 466.605469 371 464.621094 L 506.871094 386.28125 C 510.84375 383.988281 513.289062 379.710938 513.289062 375.132812 L 513.289062 361.996094 C 513.289062 358.636719 509.621094 356.5 506.71875 358.179688 Z M 276.546875 488.445312 L 289.84375 392.234375 L 289.84375 389.332031 C 289.84375 381.238281 294.277344 373.605469 301.308594 369.480469 L 303.753906 368.105469 L 385.367188 302.4375 L 392.855469 334.050781 L 428.3125 313.585938 L 452.003906 289.152344 L 456.585938 297.246094 L 488.835938 278.617188 L 488.835938 78.40625 C 488.835938 54.277344 462.699219 39.160156 441.761719 51.222656 L 404.929688 72.453125 L 395.148438 106.660156 L 297.488281 163.011719 L 289.234375 139.035156 L 235.285156 170.1875 C 214.652344 182.101562 202.117188 203.9375 202.117188 227.761719 L 202.117188 733.246094 C 202.117188 748.671875 218.777344 758.292969 232.226562 750.503906 L 462.242188 617.792969 C 478.59375 608.324219 488.683594 590.917969 488.683594 571.980469 L 488.683594 429.957031 L 434.273438 461.414062 L 363.207031 527.691406 L 314.757812 539.300781 C 310.019531 542.046875 276.546875 488.445312 276.546875 488.445312 Z M 276.546875 488.445312 " fill-opacity="1" fill-rule="nonzero"/><path fill="#e29417" d="M 645.183594 617.792969 L 645.183594 634.59375 C 645.183594 642.074219 640.292969 649.558594 630.511719 655.210938 C 610.796875 666.511719 578.703125 666.511719 558.988281 655.210938 C 555.320312 653.070312 552.261719 650.628906 549.96875 648.03125 C 549.050781 654.75 544.160156 661.164062 535.449219 666.355469 C 515.734375 677.660156 483.640625 677.660156 463.921875 666.355469 C 453.988281 660.554688 449.097656 653.070312 449.25 645.433594 L 449.25 628.941406 L 452.613281 628.941406 C 452.003906 627.109375 451.695312 625.277344 451.851562 623.292969 L 451.851562 606.644531 L 459.03125 593.359375 C 460.410156 592.136719 468.660156 588.777344 471.871094 587.25 L 471.871094 488.140625 L 480.734375 478.976562 C 482.417969 477.601562 486.542969 471.492188 488.683594 470.273438 C 508.398438 458.972656 536.367188 458.054688 556.082031 469.355469 C 558.070312 470.578125 564.03125 478.367188 565.558594 479.742188 L 572.894531 487.988281 L 572.894531 594.429688 C 592 589.390625 615.992188 592.445312 631.886719 601.453125 C 633.875 602.675781 636.167969 605.730469 637.847656 606.953125 Z M 368.25 739.8125 C 368.402344 734.011719 363.816406 729.429688 359.386719 725.761719 C 356.785156 723.472656 354.035156 721.183594 350.980469 719.5 C 343.183594 715.226562 334.015625 714.613281 325.148438 714.003906 C 320.105469 713.699219 315.0625 713.394531 310.171875 714.308594 C 306.960938 714.921875 303.90625 715.835938 301.003906 716.90625 C 296.570312 718.433594 292.136719 719.808594 288.011719 722.25 C 285.261719 723.777344 282.816406 725.914062 280.828125 728.207031 L 280.828125 670.175781 L 275.171875 662.691406 C 273.492188 661.316406 271.351562 655.210938 269.210938 654.140625 C 249.496094 642.839844 216.332031 640.703125 196.769531 652.003906 C 194.78125 653.222656 189.738281 658.570312 188.210938 659.945312 L 179.957031 670.175781 L 179.957031 750.808594 C 179.957031 758.292969 184.847656 765.773438 194.628906 771.425781 C 214.34375 782.726562 246.441406 782.726562 266.15625 771.425781 C 269.519531 769.59375 272.117188 767.453125 274.410156 765.164062 C 276.703125 769.746094 280.980469 774.019531 287.09375 777.535156 C 306.808594 788.835938 338.90625 788.835938 358.621094 777.535156 C 368.554688 771.730469 373.445312 764.246094 373.292969 756.613281 L 373.292969 739.964844 L 368.402344 739.964844 C 368.25 740.117188 368.25 739.964844 368.25 739.8125 Z M 456.433594 203.9375 C 440.234375 211.726562 423.882812 214.628906 409.363281 214.933594 C 322.703125 268.84375 309.253906 326.414062 314.300781 379.558594 L 392.855469 334.203125 L 438.246094 276.019531 L 456.433594 223.484375 C 456.433594 211.421875 456.433594 203.9375 456.433594 203.9375 Z M 274.410156 540.367188 L 292.289062 530.746094 L 300.085938 495.46875 L 300.085938 403.6875 C 295.957031 382.765625 279.605469 374.980469 274.257812 384.140625 C 257.292969 413.460938 253.777344 484.015625 249.648438 491.042969 C 249.648438 495.316406 249.648438 498.984375 249.648438 502.035156 C 249.804688 519.292969 260.195312 531.664062 274.410156 540.367188 Z M 456.433594 264.871094 C 451.085938 261.207031 440.539062 273.730469 436.261719 280.90625 C 431.0625 289.917969 424.644531 308.242188 428.160156 313.738281 L 456.433594 297.550781 C 456.433594 286.558594 456.433594 275.410156 456.433594 264.871094 Z M 312.160156 555.179688 L 348.382812 542.660156 L 332.332031 520.058594 L 319.191406 527.691406 C 314.453125 530.441406 308.949219 529.679688 305.128906 526.777344 C 300.238281 526.320312 295.957031 529.984375 293.972656 533.34375 C 291.527344 537.464844 289.84375 546.019531 292.289062 549.074219 C 298.863281 551.515625 305.585938 553.652344 312.160156 555.179688 Z M 312.160156 555.179688 " fill-opacity="1" fill-rule="nonzero"/><path fill="#d3830f" d="M 305.128906 526.777344 C 300.238281 535.175781 295.957031 542.660156 292.289062 549.074219 C 291.066406 548.460938 280.523438 544.1875 274.410156 540.367188 L 300.238281 495.316406 L 300.238281 516.699219 C 300.238281 520.972656 302.226562 524.484375 305.128906 526.777344 Z M 292.289062 549.074219 C 292.445312 549.074219 292.445312 549.074219 292.289062 549.074219 Z M 428.160156 313.738281 C 438.246094 296.179688 447.875 279.683594 456.433594 264.871094 C 456.433594 248.835938 456.433594 234.175781 456.433594 223.332031 L 392.703125 334.203125 Z M 314.144531 379.558594 C 343.644531 328.402344 378.792969 267.773438 409.207031 214.933594 C 377.265625 215.546875 352.964844 203.9375 352.964844 203.9375 C 327.441406 270.980469 249.648438 323.207031 249.648438 323.207031 C 249.648438 323.207031 249.648438 465.996094 249.648438 502.035156 C 249.648438 502.953125 249.648438 504.023438 249.804688 504.9375 C 249.804688 504.023438 249.648438 502.953125 249.648438 502.035156 C 249.648438 499.136719 249.648438 495.316406 249.648438 491.042969 C 255 481.726562 274.5625 447.976562 300.085938 403.6875 L 300.085938 400.789062 C 300.085938 392.695312 304.515625 385.058594 311.546875 380.933594 Z M 312.160156 555.179688 C 313.535156 555.335938 352.964844 561.59375 352.964844 561.59375 C 390.867188 539.757812 417.15625 498.984375 433.664062 461.566406 L 332.332031 520.058594 Z M 312.160156 555.179688 Z M 571.519531 488.140625 L 569.074219 488.140625 L 569.074219 595.804688 C 569.835938 595.496094 570.753906 595.34375 571.519531 595.039062 Z M 564.03125 597.789062 C 565.101562 597.332031 566.015625 596.871094 567.085938 596.566406 L 567.085938 488.140625 L 564.03125 488.140625 Z M 558.070312 484.320312 L 558.070312 601.300781 C 558.832031 600.691406 559.597656 600.078125 560.210938 599.773438 C 560.515625 599.621094 560.820312 599.46875 561.125 599.316406 L 561.125 486.308594 C 560.210938 485.542969 559.292969 484.933594 558.070312 484.320312 C 558.222656 484.320312 558.070312 484.320312 558.070312 484.320312 Z M 550.273438 603.746094 L 552.261719 606.339844 C 552.875 605.882812 553.636719 605.117188 554.554688 604.355469 L 554.554688 500.203125 C 553.179688 499.59375 551.804688 498.984375 550.425781 498.371094 L 550.425781 603.746094 Z M 545.84375 597.941406 L 545.84375 497.609375 L 541.714844 497.609375 L 541.714844 593.511719 C 543.246094 595.191406 544.773438 597.023438 545.84375 597.941406 Z M 535.753906 507.6875 L 530.710938 507.6875 L 530.710938 586.792969 C 532.394531 587.558594 534.074219 588.320312 535.753906 589.238281 Z M 524.90625 513.03125 L 519.859375 513.03125 L 519.859375 582.824219 C 521.542969 583.28125 523.222656 583.890625 524.90625 584.351562 Z M 513.902344 513.03125 L 508.855469 513.03125 L 508.855469 580.53125 C 510.539062 580.683594 512.21875 580.988281 513.902344 581.296875 Z M 503.050781 505.242188 L 498.921875 505.242188 L 498.921875 580.074219 C 500.296875 580.074219 501.671875 580.074219 503.050781 580.074219 Z M 490.210938 580.683594 C 491.585938 580.53125 492.960938 580.226562 494.335938 580.226562 L 494.335938 480.65625 C 492.960938 481.269531 491.433594 481.878906 490.210938 482.488281 Z M 486.542969 484.320312 C 485.472656 484.933594 484.402344 485.542969 483.488281 486.308594 L 483.488281 582.210938 C 484.554688 581.90625 485.472656 581.601562 486.542969 581.449219 Z M 480.582031 492.722656 L 477.527344 492.722656 L 477.527344 584.351562 C 478.59375 583.890625 479.511719 583.433594 480.582031 583.128906 Z M 473.09375 586.640625 C 473.859375 586.183594 474.773438 585.722656 475.539062 585.417969 L 475.539062 488.140625 L 473.09375 488.140625 Z M 450.472656 652.308594 C 451.085938 653.835938 451.851562 655.210938 452.917969 656.738281 L 452.917969 628.941406 L 450.472656 628.941406 Z M 592.304688 663.761719 C 593.984375 663.761719 595.667969 663.761719 597.195312 663.761719 L 597.195312 641.160156 L 592.304688 641.160156 Z M 603.15625 663.304688 C 604.835938 663.148438 606.519531 662.996094 608.046875 662.691406 L 608.046875 630.621094 L 603.15625 630.621094 Z M 614.007812 661.625 C 615.382812 661.316406 616.757812 660.859375 618.132812 660.554688 L 618.132812 628.941406 L 614.007812 628.941406 Z M 622.71875 658.875 C 624.09375 658.261719 625.46875 657.804688 626.84375 657.042969 L 626.84375 627.71875 C 625.46875 627.109375 624.09375 626.5 622.71875 625.886719 Z M 630.359375 623.597656 L 630.359375 655.363281 C 630.359375 655.363281 630.511719 655.363281 630.511719 655.363281 C 631.582031 654.75 632.5 654.140625 633.417969 653.53125 L 633.417969 625.734375 C 632.5 624.820312 631.582031 624.207031 630.359375 623.597656 C 630.511719 623.597656 630.359375 623.597656 630.359375 623.597656 Z M 636.320312 651.238281 C 637.390625 650.324219 638.460938 649.253906 639.378906 648.335938 L 639.378906 627.414062 L 636.320312 627.414062 Z M 641.363281 617.792969 L 641.363281 645.894531 C 642.433594 644.519531 643.199219 643.144531 643.808594 641.617188 L 643.808594 617.792969 Z M 581.300781 662.691406 C 582.980469 662.996094 584.664062 663.148438 586.191406 663.304688 L 586.191406 639.480469 L 581.300781 639.480469 Z M 571.214844 660.402344 C 572.589844 660.859375 573.964844 661.164062 575.339844 661.46875 L 575.339844 637.800781 L 571.214844 637.800781 Z M 562.65625 657.042969 C 564.03125 657.652344 565.40625 658.261719 566.78125 658.875 L 566.78125 628.027344 C 565.40625 628.636719 564.03125 629.246094 562.65625 629.859375 Z M 555.929688 633.675781 L 555.929688 653.375 C 556.847656 653.988281 557.917969 654.75 558.988281 655.363281 L 558.988281 631.691406 C 557.917969 632.300781 557 632.914062 555.929688 633.675781 Z M 227.792969 779.976562 C 229.476562 779.976562 231.15625 779.976562 232.683594 779.976562 L 232.683594 694.152344 L 227.792969 694.152344 Z M 216.945312 779.058594 C 218.625 779.367188 220.304688 779.519531 221.835938 779.671875 L 221.835938 692.625 L 216.945312 692.625 Z M 206.855469 776.769531 C 208.230469 777.226562 209.605469 777.535156 210.984375 777.839844 L 210.984375 683.613281 L 206.855469 683.613281 Z M 198.296875 773.5625 C 199.671875 774.171875 201.046875 774.785156 202.425781 775.394531 L 202.425781 680.867188 C 201.046875 681.476562 199.671875 681.933594 198.296875 682.699219 Z M 191.574219 686.515625 L 191.574219 769.746094 C 192.488281 770.355469 193.558594 770.964844 194.476562 771.578125 C 194.476562 771.578125 194.628906 771.578125 194.628906 771.578125 L 194.628906 684.53125 C 194.628906 684.53125 194.476562 684.53125 194.476562 684.53125 C 193.558594 685.140625 192.488281 685.753906 191.574219 686.515625 Z M 185.613281 764.550781 C 186.53125 765.621094 187.597656 766.539062 188.667969 767.453125 L 188.667969 670.175781 L 185.613281 670.175781 Z M 181.179688 757.832031 C 181.792969 759.359375 182.554688 760.734375 183.625 762.109375 L 183.625 670.175781 L 181.179688 670.175781 Z M 238.796875 779.671875 C 240.480469 779.519531 242.160156 779.367188 243.6875 779.058594 L 243.6875 692.625 L 238.796875 692.625 Z M 249.648438 777.839844 C 251.027344 777.535156 252.402344 777.074219 253.777344 776.769531 L 253.777344 687.433594 L 249.648438 687.433594 Z M 258.207031 775.242188 C 259.585938 774.632812 260.960938 774.019531 262.335938 773.410156 L 262.335938 664.675781 C 260.960938 664.066406 259.585938 663.457031 258.207031 662.84375 Z M 266.003906 666.511719 L 266.003906 771.578125 C 267.074219 770.964844 268.144531 770.355469 269.058594 769.59375 L 269.058594 668.496094 C 268.144531 667.730469 267.074219 667.121094 266.003906 666.511719 Z M 279.453125 730.039062 L 279.453125 670.328125 L 277.007812 670.328125 L 277.007812 740.269531 C 277.160156 736.910156 277.3125 733.09375 279.148438 730.34375 C 279.300781 730.191406 279.300781 730.039062 279.453125 730.039062 Z M 275.019531 740.269531 L 276.089844 740.269531 L 276.089844 768.371094 C 275.171875 767.148438 274.5625 765.925781 273.949219 764.707031 C 274.101562 764.859375 274.101562 765.164062 274.257812 765.316406 C 273.492188 766.078125 272.726562 766.691406 271.964844 767.453125 L 271.964844 670.328125 L 275.019531 670.328125 Z M 273.644531 740.269531 L 272.269531 740.269531 L 272.269531 757.070312 C 272.269531 759.359375 272.726562 761.652344 273.644531 763.941406 Z M 320.257812 786.238281 C 321.941406 786.238281 323.621094 786.238281 325.148438 786.238281 L 325.148438 766.691406 L 320.257812 766.691406 Z M 309.40625 785.167969 C 311.089844 785.472656 312.769531 785.628906 314.300781 785.78125 L 314.300781 765.011719 L 309.40625 765.011719 Z M 299.320312 782.878906 C 300.695312 783.335938 302.070312 783.640625 303.449219 783.949219 L 303.449219 749.28125 L 299.320312 749.28125 Z M 290.609375 779.671875 C 291.984375 780.28125 293.359375 780.894531 294.734375 781.503906 L 294.734375 746.53125 C 293.359375 747.144531 291.984375 747.601562 290.609375 748.363281 Z M 284.039062 752.183594 L 284.039062 775.855469 C 284.953125 776.464844 286.023438 777.074219 286.941406 777.6875 C 286.941406 777.6875 287.09375 777.6875 287.09375 777.6875 L 287.09375 750.042969 C 287.09375 750.042969 286.941406 750.042969 286.941406 750.042969 C 285.871094 750.808594 284.953125 751.417969 284.039062 752.183594 Z M 278.078125 770.8125 C 278.992188 771.882812 280.0625 772.800781 281.132812 773.714844 L 281.132812 746.53125 L 278.078125 746.53125 Z M 331.109375 785.78125 C 332.792969 785.628906 334.472656 785.472656 336 785.167969 L 336 765.011719 L 331.109375 765.011719 Z M 341.960938 784.101562 C 343.335938 783.792969 344.710938 783.335938 346.089844 783.03125 L 346.089844 758.597656 L 341.960938 758.597656 Z M 350.671875 781.351562 C 352.050781 780.742188 353.425781 780.128906 354.800781 779.519531 L 354.800781 757.527344 C 353.425781 756.917969 352.050781 756.304688 350.671875 755.695312 Z M 358.46875 750.65625 L 358.46875 777.6875 C 359.539062 777.074219 360.609375 776.464844 361.523438 775.699219 L 361.523438 752.640625 C 360.453125 752.03125 359.539062 751.265625 358.46875 750.65625 Z M 364.277344 773.5625 C 365.34375 772.648438 366.414062 771.578125 367.332031 770.660156 L 367.332031 747.449219 L 364.277344 747.449219 Z M 369.472656 768.21875 C 370.542969 766.84375 371.304688 765.316406 371.917969 763.789062 L 371.917969 740.269531 L 369.472656 740.269531 Z M 552.566406 623.597656 C 552.566406 625.886719 552.109375 628.179688 551.191406 630.46875 L 551.191406 606.800781 L 548.746094 606.800781 L 548.746094 634.898438 C 549.207031 634.132812 549.664062 633.523438 550.121094 632.761719 L 550.121094 645.894531 C 550.121094 646.503906 550.121094 647.117188 549.96875 647.726562 L 549.96875 648.335938 C 550.886719 649.40625 551.957031 650.324219 553.027344 651.238281 L 553.027344 617.945312 L 552.566406 617.945312 Z M 499.6875 652.613281 C 498.921875 652.613281 498.003906 652.613281 497.242188 652.613281 L 497.242188 674.757812 C 498.921875 674.757812 500.605469 674.757812 502.132812 674.757812 L 502.132812 652.613281 C 501.671875 652.613281 501.367188 652.613281 500.910156 652.613281 C 502.132812 652.613281 503.355469 652.613281 504.578125 652.613281 L 504.578125 624.972656 L 499.6875 624.972656 Z M 510.539062 652.308594 C 509.773438 652.460938 508.855469 652.460938 508.09375 652.613281 L 508.09375 674.605469 C 509.773438 674.453125 511.453125 674.296875 512.984375 673.992188 L 512.984375 652.15625 C 512.832031 652.15625 512.523438 652.15625 512.21875 652.15625 C 513.289062 652.003906 514.359375 651.847656 515.429688 651.695312 L 515.429688 623.445312 L 510.539062 623.445312 Z M 521.390625 650.476562 C 520.625 650.628906 519.707031 650.933594 518.945312 651.085938 L 518.945312 672.769531 C 520.320312 672.464844 521.695312 672.007812 523.070312 671.703125 L 523.070312 650.167969 C 523.835938 650.015625 524.75 649.710938 525.515625 649.558594 L 525.515625 617.183594 L 521.390625 617.183594 Z M 530.101562 647.878906 C 529.335938 648.183594 528.417969 648.488281 527.65625 648.796875 L 527.65625 670.175781 C 529.03125 669.5625 530.40625 669.105469 531.78125 668.34375 L 531.78125 647.269531 C 532.699219 646.960938 533.464844 646.503906 534.378906 646.199219 L 534.378906 616.113281 C 533.003906 615.503906 531.628906 614.894531 530.253906 614.28125 L 530.253906 647.878906 Z M 537.742188 610.003906 L 537.742188 644.214844 C 536.976562 644.671875 536.0625 645.128906 535.296875 645.433594 L 535.296875 666.355469 C 535.296875 666.355469 535.449219 666.355469 535.449219 666.355469 C 536.519531 665.746094 537.4375 665.136719 538.355469 664.523438 L 538.355469 643.910156 C 539.269531 643.449219 540.035156 642.839844 540.800781 642.382812 L 540.800781 611.992188 C 539.882812 611.378906 538.964844 610.769531 537.742188 610.003906 C 537.894531 610.003906 537.742188 610.003906 537.742188 610.003906 Z M 546.757812 613.824219 L 543.703125 613.824219 L 543.703125 640.089844 C 542.9375 640.703125 542.175781 641.3125 541.257812 642.074219 L 541.257812 662.386719 C 542.328125 661.46875 543.398438 660.402344 544.3125 659.484375 L 544.3125 639.632812 C 544.160156 639.785156 544.007812 639.9375 543.703125 640.089844 C 544.621094 639.328125 545.535156 638.410156 546.300781 637.648438 C 546.300781 637.648438 546.148438 637.800781 546.148438 637.800781 L 546.148438 657.042969 C 547.21875 655.667969 547.980469 654.292969 548.59375 652.765625 L 548.59375 634.898438 C 547.984375 635.660156 547.371094 636.425781 546.605469 637.1875 L 546.605469 613.824219 Z M 488.683594 651.542969 C 487.917969 651.390625 487 651.238281 486.238281 651.085938 L 486.238281 673.6875 C 487.917969 673.992188 489.601562 674.144531 491.128906 674.296875 L 491.128906 651.847656 C 490.976562 651.847656 490.667969 651.847656 490.515625 651.695312 C 491.585938 651.847656 492.503906 652.003906 493.574219 652.15625 L 493.574219 628.179688 L 488.683594 628.179688 Z M 478.59375 649.253906 C 477.832031 648.949219 476.914062 648.796875 476.148438 648.488281 L 476.148438 671.550781 C 477.527344 672.007812 478.902344 672.3125 480.277344 672.617188 L 480.277344 649.863281 C 481.039062 650.015625 481.957031 650.324219 482.722656 650.476562 L 482.722656 626.652344 L 478.59375 626.652344 Z M 470.035156 646.046875 C 469.273438 645.589844 468.355469 645.28125 467.589844 644.824219 L 467.589844 668.34375 C 468.96875 668.953125 470.34375 669.5625 471.71875 670.175781 L 471.71875 646.960938 C 471.71875 646.960938 471.566406 646.960938 471.566406 646.808594 C 472.480469 647.269531 473.246094 647.574219 474.164062 647.878906 L 474.164062 611.992188 C 472.789062 612.601562 471.414062 613.210938 470.035156 613.824219 Z M 463.3125 617.488281 L 463.3125 642.230469 C 462.394531 641.617188 461.632812 641.007812 460.867188 640.394531 L 460.867188 664.371094 C 461.785156 664.984375 462.855469 665.746094 463.921875 666.355469 L 463.921875 642.6875 C 463.921875 642.6875 463.769531 642.6875 463.769531 642.535156 C 464.535156 643.144531 465.453125 643.601562 466.367188 644.214844 L 466.367188 615.65625 C 465.300781 616.265625 464.382812 616.878906 463.3125 617.488281 Z M 457.351562 637.035156 C 456.585938 636.273438 455.976562 635.355469 455.363281 634.59375 L 455.363281 606.796875 L 452.917969 606.796875 L 452.917969 630.316406 C 453.53125 631.691406 454.140625 632.914062 455.058594 634.289062 C 455.058594 634.132812 454.90625 634.132812 454.753906 633.980469 L 454.753906 659.332031 C 455.671875 660.402344 456.742188 661.316406 457.808594 662.234375 L 457.808594 637.800781 C 457.808594 637.800781 457.808594 637.648438 457.65625 637.648438 C 458.421875 638.410156 459.339844 639.328125 460.253906 640.089844 L 460.253906 611.226562 L 457.199219 611.226562 L 457.199219 637.035156 Z M 457.351562 637.035156 " fill-opacity="1" fill-rule="nonzero"/><path fill="#fecf47" d="M 314.144531 439.730469 C 315.675781 431.023438 320.871094 421.863281 327.59375 415.90625 C 324.996094 415.601562 323.164062 413.15625 323.164062 409.339844 C 323.164062 403.535156 327.289062 396.359375 332.332031 393.457031 C 337.375 390.554688 341.503906 393 341.503906 398.800781 C 341.503906 402.621094 339.667969 407.046875 337.070312 410.410156 C 342.113281 409.035156 346.242188 410.5625 348.6875 414.226562 C 351.285156 418.042969 349.910156 423.390625 345.78125 425.679688 L 317.355469 442.019531 C 315.828125 443.089844 313.839844 441.714844 314.144531 439.730469 Z M 343.949219 452.253906 L 343.949219 449.351562 C 343.949219 441.867188 338.597656 438.8125 332.179688 442.476562 C 325.609375 446.296875 320.414062 455.460938 320.414062 462.941406 L 320.414062 486.15625 C 320.414062 488.902344 323.316406 490.582031 325.761719 489.207031 L 338.90625 481.726562 C 342.113281 479.894531 344.253906 476.382812 344.253906 472.5625 L 344.253906 455.765625 C 343.488281 456.222656 342.574219 456.679688 341.65625 457.292969 L 341.042969 457.597656 C 341.042969 457.597656 340.890625 457.597656 340.890625 457.75 L 336.613281 460.191406 C 336.613281 460.191406 336.613281 460.191406 336.460938 460.191406 L 334.167969 461.566406 L 324.386719 467.21875 L 324.386719 461.414062 C 324.386719 455.917969 328.207031 449.351562 332.945312 446.601562 C 337.683594 443.851562 341.503906 446.144531 341.503906 451.488281 L 341.503906 453.777344 C 342.113281 453.320312 343.03125 452.710938 343.949219 452.253906 Z M 266.003906 691.402344 C 246.289062 702.703125 214.191406 702.703125 194.476562 691.402344 C 174.761719 680.101562 174.761719 661.46875 194.476562 650.167969 C 214.191406 638.867188 246.289062 638.867188 266.003906 650.167969 C 285.71875 661.625 285.71875 680.101562 266.003906 691.402344 Z M 204.410156 669.71875 L 224.738281 674.144531 L 228.40625 672.007812 L 204.410156 666.816406 L 203.1875 667.578125 C 202.730469 667.882812 202.117188 668.039062 201.8125 668.039062 C 201.355469 668.039062 200.894531 667.882812 200.589844 667.578125 C 200.285156 667.273438 199.980469 667.121094 199.980469 666.816406 L 199.980469 669.71875 C 199.980469 670.023438 200.132812 670.328125 200.589844 670.480469 C 200.894531 670.785156 201.355469 670.9375 201.8125 670.9375 C 202.269531 670.9375 202.730469 670.785156 203.1875 670.480469 Z M 209.761719 665.898438 L 209.761719 663.304688 C 209.761719 663.609375 209.453125 663.914062 208.996094 664.21875 L 207.007812 665.441406 Z M 227.03125 653.53125 C 226.878906 653.683594 226.726562 653.988281 226.265625 654.140625 L 225.042969 654.902344 L 226.113281 657.195312 L 226.265625 657.042969 C 226.726562 656.738281 227.03125 656.429688 227.03125 656.125 C 227.03125 656.125 227.03125 655.972656 227.03125 655.972656 C 226.878906 656.125 226.878906 654.140625 227.03125 653.53125 Z M 222.445312 656.277344 L 220.457031 657.5 C 220 657.804688 219.542969 657.957031 219.082031 657.957031 C 218.625 657.957031 218.167969 657.804688 217.859375 657.5 C 217.554688 657.195312 217.25 657.042969 217.25 656.738281 L 217.25 659.636719 C 217.25 659.945312 217.402344 660.25 217.859375 660.402344 C 218.167969 660.707031 218.625 660.859375 219.082031 660.859375 C 219.542969 660.859375 220 660.707031 220.457031 660.402344 L 222.445312 659.179688 L 227.335938 669.71875 L 228.863281 670.023438 Z M 224.125 679.492188 L 231.003906 675.519531 L 233.296875 677.046875 L 235.742188 675.671875 L 231.003906 672.617188 L 224.125 676.589844 C 223.820312 676.742188 223.363281 676.894531 223.058594 676.894531 C 222.75 676.894531 222.445312 676.742188 222.140625 676.589844 C 221.835938 676.4375 221.679688 676.285156 221.679688 675.976562 L 221.679688 678.878906 C 221.679688 679.03125 221.835938 679.339844 222.140625 679.492188 C 222.445312 679.644531 222.75 679.796875 223.058594 679.796875 C 223.363281 679.796875 223.820312 679.796875 224.125 679.492188 Z M 240.328125 666.96875 C 240.328125 667.121094 240.175781 667.425781 239.867188 667.578125 L 232.992188 671.550781 L 235.4375 673.078125 L 239.867188 670.480469 C 240.175781 670.328125 240.328125 670.023438 240.328125 669.871094 Z M 239.5625 675.671875 L 242.007812 677.199219 L 246.441406 674.605469 C 246.746094 674.453125 246.898438 674.144531 246.898438 673.992188 L 246.898438 671.089844 C 246.898438 671.246094 246.746094 671.550781 246.441406 671.703125 Z M 237.574219 679.949219 L 241.550781 682.546875 L 243.996094 681.171875 L 237.730469 677.046875 L 230.851562 681.019531 C 230.546875 681.171875 230.085938 681.324219 229.78125 681.324219 C 229.476562 681.324219 229.171875 681.171875 228.863281 681.019531 C 228.558594 680.867188 228.40625 680.710938 228.40625 680.40625 L 228.40625 683.308594 C 228.40625 683.460938 228.558594 683.765625 228.863281 683.917969 C 229.171875 684.070312 229.476562 684.226562 229.78125 684.226562 C 230.085938 684.226562 230.394531 684.070312 230.851562 683.917969 Z M 253.625 677.964844 C 253.625 678.269531 253.472656 678.574219 252.859375 678.878906 L 241.703125 685.292969 C 241.242188 685.597656 240.785156 685.753906 240.328125 685.753906 C 239.867188 685.753906 239.410156 685.597656 239.105469 685.292969 C 238.796875 684.988281 238.492188 684.835938 238.492188 684.53125 L 238.492188 687.433594 C 238.492188 687.738281 238.644531 688.042969 239.105469 688.195312 C 239.410156 688.5 239.867188 688.5 240.328125 688.652344 C 240.785156 688.652344 241.242188 688.5 241.703125 688.195312 L 252.859375 681.78125 C 253.316406 681.476562 253.625 681.171875 253.625 680.867188 Z M 260.808594 653.222656 C 243.996094 643.601562 216.636719 643.601562 199.824219 653.222656 C 190.503906 658.570312 186.375 665.746094 187.445312 672.769531 C 188.210938 667.121094 192.335938 661.46875 199.824219 657.195312 C 216.636719 647.574219 243.996094 647.574219 260.808594 657.195312 C 268.296875 661.46875 272.421875 667.121094 273.1875 672.769531 C 274.257812 665.746094 270.128906 658.570312 260.808594 653.222656 Z M 358.46875 761.5 C 338.753906 772.800781 306.65625 772.800781 286.941406 761.5 C 267.226562 750.199219 267.226562 731.566406 286.941406 720.265625 C 306.65625 708.964844 338.753906 708.964844 358.46875 720.265625 C 378.03125 731.566406 378.03125 750.042969 358.46875 761.5 Z M 296.875 739.660156 L 317.203125 744.089844 L 320.871094 741.949219 L 296.875 736.757812 L 295.652344 737.523438 C 295.195312 737.828125 294.582031 737.980469 294.277344 737.980469 C 293.820312 737.980469 293.359375 737.828125 293.054688 737.523438 C 292.75 737.214844 292.445312 737.0625 292.445312 736.757812 L 292.445312 739.660156 C 292.445312 739.964844 292.597656 740.269531 293.054688 740.421875 C 293.359375 740.730469 293.820312 740.882812 294.277344 740.882812 C 294.734375 740.882812 295.195312 740.730469 295.652344 740.421875 Z M 302.070312 735.996094 L 302.070312 733.398438 C 302.070312 733.703125 301.765625 734.011719 301.308594 734.316406 L 299.320312 735.535156 Z M 319.34375 723.472656 C 319.191406 723.625 319.035156 723.929688 318.578125 724.082031 L 317.355469 724.847656 L 318.425781 727.136719 L 318.578125 726.984375 C 319.035156 726.679688 319.34375 726.375 319.34375 726.070312 C 319.34375 726.070312 319.34375 725.914062 319.34375 725.914062 C 319.34375 726.070312 319.34375 724.082031 319.34375 723.472656 Z M 314.910156 726.375 L 312.921875 727.597656 C 312.464844 727.902344 312.007812 728.054688 311.546875 728.054688 C 311.089844 728.054688 310.628906 727.902344 310.324219 727.597656 C 310.019531 727.289062 309.714844 727.136719 309.714844 726.832031 L 309.714844 729.734375 C 309.714844 730.039062 309.867188 730.34375 310.324219 730.496094 C 310.628906 730.804688 311.089844 730.957031 311.546875 730.957031 C 312.007812 730.957031 312.464844 730.800781 312.921875 730.496094 L 314.910156 729.277344 L 319.800781 739.8125 L 321.328125 740.117188 Z M 316.589844 749.585938 L 323.46875 745.617188 L 325.761719 747.144531 L 328.207031 745.769531 L 323.46875 742.714844 L 316.589844 746.683594 C 316.285156 746.835938 315.828125 746.992188 315.523438 746.992188 C 315.214844 746.992188 314.910156 746.835938 314.605469 746.683594 C 314.300781 746.53125 314.144531 746.378906 314.144531 746.074219 L 314.144531 748.976562 C 314.144531 749.128906 314.300781 749.433594 314.605469 749.585938 C 314.910156 749.738281 315.214844 749.890625 315.523438 749.890625 C 315.828125 749.890625 316.132812 749.738281 316.589844 749.585938 Z M 332.792969 739.8125 L 332.792969 736.910156 C 332.792969 737.0625 332.640625 737.371094 332.332031 737.523438 L 325.457031 741.492188 L 327.902344 743.019531 L 332.332031 740.421875 C 332.640625 740.269531 332.792969 740.117188 332.792969 739.8125 Z M 339.363281 744.089844 L 339.363281 741.1875 C 339.363281 741.339844 339.210938 741.644531 338.90625 741.796875 L 332.027344 745.769531 L 334.472656 747.296875 L 338.90625 744.699219 C 339.210938 744.546875 339.363281 744.394531 339.363281 744.089844 Z M 329.886719 749.890625 L 333.863281 752.488281 L 336.308594 751.113281 L 330.039062 746.992188 L 323.164062 750.960938 C 322.859375 751.113281 322.398438 751.265625 322.09375 751.265625 C 321.789062 751.265625 321.480469 751.113281 321.175781 750.960938 C 320.871094 750.808594 320.71875 750.65625 320.71875 750.351562 L 320.71875 753.25 C 320.71875 753.40625 320.871094 753.710938 321.175781 753.863281 C 321.480469 754.015625 321.789062 754.167969 322.09375 754.167969 C 322.398438 754.167969 322.703125 754.015625 323.164062 753.863281 Z M 346.089844 748.058594 C 346.089844 748.363281 345.933594 748.671875 345.324219 748.976562 L 334.167969 755.390625 C 333.707031 755.695312 333.25 755.847656 332.792969 755.847656 C 332.332031 755.847656 331.875 755.695312 331.570312 755.390625 C 331.261719 755.085938 330.957031 754.933594 330.957031 754.625 L 330.957031 757.527344 C 330.957031 757.832031 331.109375 758.136719 331.570312 758.292969 C 331.875 758.597656 332.332031 758.597656 332.792969 758.75 C 333.25 758.75 333.707031 758.597656 334.167969 758.292969 L 345.324219 751.878906 C 345.78125 751.570312 346.089844 751.265625 346.089844 750.960938 Z M 353.273438 723.167969 C 336.460938 713.546875 309.101562 713.546875 292.289062 723.167969 C 282.96875 728.511719 278.839844 735.691406 279.910156 742.714844 C 280.675781 737.0625 284.800781 731.414062 292.289062 727.136719 C 309.101562 717.515625 336.460938 717.515625 353.273438 727.136719 C 360.761719 731.414062 364.886719 737.0625 365.652344 742.714844 C 366.566406 735.84375 362.441406 728.511719 353.273438 723.167969 Z M 537.894531 644.214844 C 518.179688 655.515625 486.085938 655.515625 466.367188 644.214844 C 456.433594 638.410156 451.542969 630.925781 451.695312 623.292969 L 451.695312 620.390625 C 446.042969 630.46875 450.015625 642.074219 463.921875 650.015625 C 483.640625 661.316406 515.734375 661.316406 535.449219 650.015625 C 543.550781 645.433594 548.289062 639.480469 549.664062 633.371094 C 547.21875 637.339844 543.398438 641.007812 537.894531 644.214844 Z M 630.511719 638.867188 C 610.796875 650.167969 578.703125 650.167969 558.988281 638.867188 C 555.472656 636.882812 552.566406 634.59375 550.273438 632.148438 C 551.804688 629.402344 552.566406 626.5 552.566406 623.597656 L 552.566406 617.183594 C 554.25 612.601562 558.070312 608.171875 564.183594 604.660156 C 580.996094 595.039062 608.351562 595.039062 625.164062 604.660156 C 632.652344 608.9375 636.777344 614.585938 637.542969 620.238281 C 638.460938 613.210938 634.332031 606.035156 625.164062 600.691406 C 608.351562 591.070312 580.996094 591.070312 564.183594 600.691406 C 558.070312 604.203125 554.25 608.632812 552.566406 613.210938 L 552.566406 606.644531 C 552.566406 606.800781 552.566406 606.953125 552.566406 607.257812 C 552.566406 614.738281 547.675781 622.222656 537.894531 627.875 C 518.179688 639.175781 486.085938 639.175781 466.367188 627.875 C 446.652344 616.574219 446.652344 597.941406 466.367188 586.640625 C 486.085938 575.339844 518.179688 575.339844 537.894531 586.640625 C 545.691406 591.222656 550.429688 596.871094 551.957031 602.828125 C 553.941406 600.996094 556.234375 599.316406 558.988281 597.789062 C 578.703125 586.488281 610.796875 586.488281 630.511719 597.789062 C 650.230469 609.089844 650.230469 627.566406 630.511719 638.867188 Z M 493.878906 621 C 493.878906 621.308594 493.726562 621.613281 493.269531 621.765625 C 492.960938 622.070312 492.503906 622.070312 492.046875 622.222656 C 491.585938 622.222656 491.128906 622.070312 490.667969 621.765625 L 479.511719 615.351562 C 479.054688 615.046875 478.75 614.738281 478.75 614.433594 L 478.75 617.335938 C 478.75 617.640625 478.902344 617.945312 479.511719 618.253906 L 490.667969 624.667969 C 491.128906 624.972656 491.585938 625.125 492.046875 625.125 C 492.503906 625.125 492.960938 624.972656 493.269531 624.667969 C 493.574219 624.359375 493.878906 624.207031 493.878906 623.902344 Z M 486.085938 608.324219 C 485.777344 608.171875 485.625 607.867188 485.625 607.714844 L 485.625 610.617188 C 485.625 610.769531 485.777344 611.074219 486.085938 611.226562 L 490.515625 613.824219 L 492.960938 612.296875 Z M 492.503906 606.953125 L 496.9375 609.546875 L 499.382812 608.019531 L 492.503906 604.050781 C 492.199219 603.898438 492.046875 603.59375 492.046875 603.4375 L 492.046875 606.339844 C 492.046875 606.492188 492.199219 606.800781 492.503906 606.953125 Z M 504.117188 616.726562 C 504.117188 616.878906 503.964844 617.183594 503.660156 617.335938 C 503.355469 617.488281 503.050781 617.640625 502.742188 617.640625 C 502.4375 617.640625 502.132812 617.488281 501.671875 617.335938 L 494.796875 613.367188 L 488.53125 617.488281 L 490.976562 618.863281 L 494.949219 616.265625 L 501.828125 620.238281 C 502.132812 620.390625 502.589844 620.542969 502.894531 620.542969 C 503.203125 620.542969 503.507812 620.390625 503.8125 620.238281 C 504.117188 620.085938 504.273438 619.933594 504.273438 619.625 L 504.273438 616.726562 Z M 510.691406 612.449219 C 510.691406 612.601562 510.539062 612.90625 510.230469 613.058594 C 509.925781 613.210938 509.621094 613.367188 509.316406 613.367188 C 509.007812 613.367188 508.703125 613.210938 508.246094 613.058594 L 501.367188 609.089844 L 496.628906 612.144531 L 499.074219 613.519531 L 501.367188 611.992188 L 508.246094 615.960938 C 508.550781 616.113281 509.007812 616.265625 509.316406 616.265625 C 509.621094 616.265625 509.925781 616.113281 510.230469 615.960938 C 510.539062 615.808594 510.691406 615.65625 510.691406 615.351562 Z M 505.496094 592.597656 C 505.496094 592.597656 505.496094 592.75 505.496094 592.597656 C 505.496094 593.054688 505.648438 593.207031 506.257812 593.511719 L 506.410156 593.664062 L 507.480469 591.375 L 506.257812 590.609375 C 505.800781 590.457031 505.648438 590.152344 505.496094 590 C 505.496094 590.609375 505.496094 592.597656 505.496094 592.597656 Z M 503.507812 606.492188 L 505.035156 606.1875 L 509.925781 595.652344 L 511.914062 596.871094 C 512.371094 597.179688 512.832031 597.332031 513.289062 597.332031 C 513.746094 597.332031 514.207031 597.179688 514.511719 596.871094 C 514.816406 596.566406 515.121094 596.414062 515.121094 596.109375 L 515.121094 593.207031 C 515.121094 593.511719 514.96875 593.816406 514.511719 593.972656 C 514.207031 594.277344 513.746094 594.429688 513.289062 594.429688 C 512.832031 594.429688 512.371094 594.277344 511.914062 593.972656 L 509.925781 592.75 Z M 532.546875 603.132812 C 532.546875 603.4375 532.394531 603.746094 531.933594 603.898438 C 531.628906 604.203125 531.171875 604.355469 530.710938 604.355469 C 530.253906 604.355469 529.796875 604.203125 529.335938 603.898438 L 528.113281 603.132812 L 504.117188 608.324219 L 507.785156 610.464844 L 528.113281 606.035156 L 529.335938 606.800781 C 529.796875 607.105469 530.40625 607.257812 530.710938 607.257812 C 531.171875 607.257812 531.628906 607.105469 531.933594 606.800781 C 532.242188 606.492188 532.546875 606.339844 532.546875 606.035156 Z M 525.515625 601.757812 L 523.527344 600.539062 C 523.070312 600.230469 522.765625 599.925781 522.765625 599.621094 L 522.765625 602.21875 Z M 532.699219 589.695312 C 515.886719 580.074219 488.53125 580.074219 471.71875 589.695312 C 462.394531 595.039062 458.269531 602.21875 459.339844 609.242188 C 460.101562 603.589844 464.230469 597.941406 471.71875 593.664062 C 488.53125 584.042969 515.886719 584.042969 532.699219 593.664062 C 540.1875 597.941406 544.3125 603.589844 545.078125 609.242188 C 546.148438 602.21875 542.023438 595.039062 532.699219 589.695312 Z M 615.382812 613.367188 L 618.132812 612.753906 L 616.148438 611.53125 C 615.6875 611.226562 615.382812 610.921875 615.382812 610.617188 Z M 598.113281 603.59375 C 598.113281 603.746094 598.113281 603.746094 598.113281 603.59375 C 598.113281 604.050781 598.265625 604.203125 598.875 604.507812 L 599.027344 604.660156 L 600.097656 602.371094 L 598.875 601.605469 C 598.417969 601.453125 598.265625 601.148438 598.113281 600.996094 C 598.113281 601.605469 598.113281 603.59375 598.113281 603.59375 Z M 596.125 617.488281 L 597.652344 617.183594 L 602.542969 606.644531 L 604.53125 607.867188 C 604.988281 608.171875 605.449219 608.324219 605.90625 608.324219 C 606.363281 608.324219 606.824219 608.171875 607.128906 607.867188 C 607.433594 607.5625 607.742188 607.410156 607.742188 607.105469 L 607.742188 604.203125 C 607.742188 604.507812 607.585938 604.8125 607.128906 604.964844 C 606.824219 605.273438 606.363281 605.425781 605.90625 605.425781 C 605.449219 605.425781 604.988281 605.273438 604.53125 604.964844 L 602.542969 603.746094 Z M 584.664062 617.335938 C 584.664062 617.488281 584.816406 617.792969 585.121094 617.945312 L 589.554688 620.542969 L 592 619.015625 L 585.121094 615.046875 C 584.816406 614.894531 584.664062 614.585938 584.664062 614.433594 Z M 578.089844 621.613281 C 578.089844 621.765625 578.242188 622.070312 578.550781 622.222656 L 582.980469 624.820312 L 585.425781 623.292969 L 578.550781 619.320312 C 578.242188 619.167969 578.089844 618.863281 578.089844 618.710938 Z M 586.496094 631.996094 C 586.496094 632.300781 586.34375 632.609375 585.886719 632.761719 C 585.578125 633.066406 585.121094 633.066406 584.664062 633.21875 C 584.203125 633.21875 583.746094 633.066406 583.289062 632.761719 L 572.128906 626.347656 C 571.671875 626.039062 571.367188 625.734375 571.367188 625.429688 L 571.367188 628.332031 C 571.367188 628.636719 571.519531 628.941406 572.128906 629.246094 L 583.289062 635.660156 C 583.746094 635.96875 584.203125 636.121094 584.664062 636.121094 C 585.121094 636.121094 585.578125 635.96875 585.886719 635.660156 C 586.191406 635.355469 586.496094 635.203125 586.496094 634.898438 Z M 596.738281 627.875 C 596.738281 628.027344 596.582031 628.332031 596.277344 628.484375 C 595.972656 628.636719 595.667969 628.789062 595.359375 628.789062 C 595.054688 628.789062 594.75 628.636719 594.292969 628.484375 L 587.414062 624.511719 L 581.148438 628.636719 L 583.59375 630.011719 L 587.566406 627.414062 L 594.445312 631.386719 C 594.75 631.539062 595.207031 631.691406 595.515625 631.691406 C 595.820312 631.691406 596.125 631.539062 596.429688 631.386719 C 596.738281 631.234375 596.890625 631.082031 596.890625 630.773438 L 596.890625 627.875 Z M 603.308594 623.597656 C 603.308594 623.75 603.15625 624.054688 602.851562 624.207031 C 602.542969 624.359375 602.238281 624.515625 601.933594 624.515625 C 601.628906 624.515625 601.320312 624.359375 600.863281 624.207031 L 593.984375 620.238281 L 589.246094 623.292969 L 591.691406 624.667969 L 593.984375 623.140625 L 600.863281 627.109375 C 601.167969 627.261719 601.628906 627.414062 601.933594 627.414062 C 602.238281 627.414062 602.542969 627.261719 602.851562 627.109375 C 603.15625 626.957031 603.308594 626.804688 603.308594 626.5 Z M 625.164062 614.128906 C 625.164062 614.433594 625.011719 614.738281 624.550781 614.894531 C 624.246094 615.199219 623.789062 615.351562 623.328125 615.351562 C 622.871094 615.351562 622.414062 615.199219 621.953125 614.894531 L 620.730469 614.128906 L 596.738281 619.320312 L 600.40625 621.460938 L 620.730469 617.03125 L 621.953125 617.792969 C 622.414062 618.101562 623.023438 618.253906 623.328125 618.253906 C 623.789062 618.253906 624.246094 618.101562 624.550781 617.792969 C 624.859375 617.488281 625.164062 617.335938 625.164062 617.03125 Z M 486.542969 467.980469 C 506.257812 456.679688 538.507812 456.679688 558.222656 467.980469 C 577.9375 479.28125 577.9375 497.914062 558.222656 509.367188 C 538.507812 520.820312 506.257812 520.667969 486.542969 509.367188 C 466.828125 498.066406 466.980469 479.433594 486.542969 467.980469 Z M 514.054688 502.34375 C 514.054688 502.648438 513.898438 502.953125 513.441406 503.105469 C 513.136719 503.410156 512.675781 503.410156 512.21875 503.5625 C 511.761719 503.5625 511.300781 503.410156 510.84375 503.105469 L 499.6875 496.691406 C 499.226562 496.386719 498.921875 496.082031 498.921875 495.777344 L 498.921875 498.675781 C 498.921875 498.984375 499.074219 499.289062 499.6875 499.59375 L 510.84375 506.007812 C 511.300781 506.3125 511.761719 506.464844 512.21875 506.464844 C 512.675781 506.464844 513.136719 506.3125 513.441406 506.007812 C 513.746094 505.703125 514.054688 505.550781 514.054688 505.242188 Z M 506.257812 489.667969 C 505.953125 489.515625 505.800781 489.207031 505.800781 489.054688 L 505.800781 491.957031 C 505.800781 492.109375 505.953125 492.414062 506.257812 492.570312 L 510.691406 495.164062 L 513.136719 493.636719 Z M 512.832031 488.292969 L 517.261719 490.890625 L 519.707031 489.363281 L 512.832031 485.390625 C 512.523438 485.238281 512.371094 484.933594 512.371094 484.78125 L 512.371094 487.683594 C 512.21875 487.835938 512.371094 488.140625 512.832031 488.292969 Z M 524.292969 498.21875 C 524.292969 498.371094 524.140625 498.675781 523.835938 498.828125 C 523.527344 498.984375 523.222656 499.136719 522.917969 499.136719 C 522.613281 499.136719 522.304688 498.984375 521.847656 498.828125 L 514.96875 494.859375 L 508.703125 498.984375 L 511.148438 500.355469 L 515.121094 497.761719 L 522 501.730469 C 522.304688 501.882812 522.765625 502.035156 523.070312 502.035156 C 523.375 502.035156 523.683594 501.882812 523.988281 501.730469 C 524.292969 501.578125 524.445312 501.425781 524.445312 501.121094 L 524.445312 498.21875 Z M 530.863281 493.941406 C 530.863281 494.097656 530.710938 494.402344 530.40625 494.554688 C 530.101562 494.707031 529.796875 494.859375 529.488281 494.859375 C 529.183594 494.859375 528.878906 494.707031 528.417969 494.554688 L 521.542969 490.582031 L 516.804688 493.636719 L 519.25 495.011719 L 521.695312 493.484375 L 528.574219 497.457031 C 528.878906 497.609375 529.335938 497.761719 529.640625 497.761719 C 529.949219 497.761719 530.253906 497.609375 530.558594 497.457031 C 530.863281 497.300781 531.019531 497.148438 531.019531 496.84375 L 531.019531 493.941406 Z M 525.667969 473.9375 C 525.667969 473.9375 525.667969 474.089844 525.667969 473.9375 C 525.667969 474.394531 525.820312 474.546875 526.433594 474.855469 L 526.585938 475.007812 L 527.65625 472.714844 L 526.433594 471.953125 C 525.972656 471.800781 525.820312 471.492188 525.667969 471.339844 C 525.820312 471.953125 525.667969 473.9375 525.667969 473.9375 Z M 523.835938 487.835938 L 525.363281 487.527344 L 530.253906 476.992188 L 532.242188 478.214844 C 532.699219 478.519531 533.15625 478.671875 533.617188 478.671875 C 534.074219 478.671875 534.53125 478.519531 534.839844 478.214844 C 535.144531 477.90625 535.449219 477.753906 535.449219 477.449219 L 535.449219 474.546875 C 535.449219 474.855469 535.296875 475.160156 534.839844 475.3125 C 534.378906 475.617188 534.074219 475.769531 533.617188 475.769531 C 533.15625 475.769531 532.699219 475.617188 532.242188 475.3125 L 530.253906 474.089844 Z M 552.875 484.476562 C 552.875 484.78125 552.71875 485.085938 552.261719 485.238281 C 551.804688 485.542969 551.496094 485.695312 551.039062 485.695312 C 550.582031 485.695312 550.121094 485.542969 549.511719 485.238281 L 548.289062 484.476562 L 524.140625 489.667969 L 527.808594 491.804688 L 548.136719 487.375 L 549.359375 488.140625 C 549.816406 488.445312 550.429688 488.597656 550.886719 488.597656 C 551.34375 488.597656 551.804688 488.445312 552.109375 488.140625 C 552.414062 487.835938 552.71875 487.683594 552.71875 487.375 L 552.71875 484.476562 Z M 545.84375 483.101562 L 543.855469 481.878906 C 543.398438 481.574219 543.089844 481.269531 543.089844 480.960938 L 543.089844 483.558594 Z M 479.359375 490.734375 C 480.125 485.085938 484.25 479.433594 491.890625 475.160156 C 508.703125 465.386719 536.214844 465.386719 553.027344 475.160156 C 560.515625 479.433594 564.640625 485.085938 565.558594 490.734375 C 566.476562 483.710938 562.347656 476.382812 553.027344 471.035156 C 536.214844 461.261719 508.703125 461.261719 491.890625 471.035156 C 482.570312 476.382812 478.441406 483.558594 479.359375 490.734375 Z M 479.359375 490.734375 " fill-opacity="1" fill-rule="nonzero"/></svg>