<svg xmlns="http://www.w3.org/2000/svg" xmlns:xlink="http://www.w3.org/1999/xlink" width="1080" zoomAndPan="magnify" viewBox="0 0 810 809.999993" height="1080" preserveAspectRatio="xMidYMid meet" version="1.0"><defs><clipPath id="135568f7fe"><path d="M 99.265625 48 L 636 48 L 636 751 L 99.265625 751 Z M 99.265625 48 " clip-rule="nonzero"/></clipPath></defs><path fill="#dedce1" d="M 624.675781 88.914062 L 634.195312 207.867188 L 628.085938 401.429688 C 628.085938 401.429688 147.308594 710.679688 144.894531 711.53125 C 142.480469 712.382812 144.894531 525.5 144.042969 421.753906 C 143.191406 318.007812 201.582031 332.503906 216.5 319.285156 Z M 624.675781 88.914062 " fill-opacity="1" fill-rule="nonzero"/><path fill="#182d88" d="M 671.84375 375.28125 L 657.210938 394.183594 L 640.019531 370.304688 L 639.167969 369.878906 L 639.167969 80.8125 C 639.167969 74.703125 635.332031 69.871094 630.359375 67.878906 C 626.664062 66.457031 611.605469 61.484375 607.628906 63.757812 L 157.113281 319 C 136.226562 331.082031 132.960938 363.769531 116.621094 380.539062 L 100 711.246094 C 116.480469 724.890625 136.085938 747.488281 140.773438 750.613281 C 146.03125 754.167969 153.277344 755.019531 159.671875 751.324219 L 283.984375 679.554688 C 284.269531 679.839844 284.695312 680.125 285.121094 680.40625 L 356.867188 721.480469 C 362.550781 724.75 369.65625 724.75 375.335938 721.480469 L 534.460938 629.671875 C 536.589844 628.535156 537.585938 626.117188 537.585938 624.269531 L 537.585938 608.636719 L 542.132812 600.964844 L 462.710938 607.785156 L 462.570312 576.378906 L 519.96875 543.265625 L 548.808594 548.097656 L 550.230469 525.925781 L 611.320312 490.679688 C 624.820312 482.863281 634.195312 470.074219 637.746094 455.292969 L 663.890625 437.242188 L 679.515625 379.6875 Z M 366.246094 418.769531 L 365.535156 418.34375 L 365.535156 403.988281 L 372.496094 400.007812 Z M 422.507812 402.992188 L 387.839844 391.054688 L 422.507812 370.875 Z M 422.507812 369.167969 L 385.992188 390.34375 L 384.574219 389.917969 L 377.183594 385.65625 L 373.207031 397.878906 L 365.535156 402.28125 L 365.535156 336.910156 L 422.507812 303.796875 Z M 422.507812 302.089844 L 365.390625 335.203125 L 365.390625 268.550781 L 422.363281 235.578125 L 422.363281 302.089844 Z M 423.925781 401.429688 L 423.925781 370.023438 L 433.730469 364.335938 Z M 480.898438 350.125 L 469.390625 343.730469 L 480.898438 337.050781 Z M 480.898438 335.203125 L 467.828125 342.734375 L 450.496094 333.070312 L 443.105469 328.808594 L 434.296875 362.207031 L 423.925781 368.175781 L 423.925781 302.800781 L 480.898438 269.6875 Z M 480.898438 268.125 L 423.925781 301.238281 L 423.925781 234.867188 L 480.898438 201.898438 Z M 482.460938 349.414062 L 482.460938 336.054688 L 497.664062 327.246094 Z M 539.433594 338.757812 L 499.226562 326.25 L 539.433594 302.941406 Z M 539.433594 301.238281 L 482.460938 334.351562 L 482.460938 268.976562 L 539.433594 235.863281 Z M 539.433594 234.15625 L 482.460938 267.269531 L 482.460938 201.042969 L 539.433594 168.074219 Z M 548.523438 341.597656 L 540.996094 339.183594 L 540.996094 302.089844 L 568.273438 286.171875 Z M 597.964844 353.109375 L 584.042969 394.75 L 583.617188 394.464844 L 580.632812 346.144531 L 598.109375 336.054688 L 598.109375 353.109375 Z M 597.964844 334.351562 L 580.492188 344.582031 L 576.941406 287.167969 L 571.824219 284.324219 L 597.964844 269.117188 Z M 597.964844 267.269531 L 570.261719 283.332031 L 569.410156 282.902344 L 568.984375 284.039062 L 540.851562 300.382812 L 540.851562 235.011719 L 597.824219 201.898438 L 597.824219 267.269531 Z M 597.964844 200.050781 L 540.996094 233.164062 L 540.996094 167.21875 L 597.964844 134.25 Z M 621.410156 377.839844 L 614.875 328.808594 L 607.484375 324.542969 L 599.386719 348.5625 L 599.386719 131.691406 L 305.863281 301.238281 L 305.4375 301.519531 L 305.4375 573.535156 L 370.648438 535.875 L 367.238281 552.21875 L 153.988281 675.433594 L 153.988281 396.882812 C 153.988281 378.832031 163.648438 362.0625 179.277344 353.109375 L 610.328125 103.976562 C 615.300781 101.136719 621.410156 104.6875 621.410156 110.371094 Z M 331.011719 491.105469 L 317.230469 556.339844 L 324.617188 560.601562 L 324.617188 560.746094 L 306.859375 570.976562 L 306.859375 505.175781 Z M 307 503.328125 L 307 437.953125 L 347.347656 414.503906 L 331.578125 489.117188 Z M 352.464844 411.519531 L 363.972656 404.839844 L 363.972656 417.632812 Z M 350.902344 410.667969 L 348.34375 409.246094 L 347.632812 412.515625 L 306.859375 436.25 L 306.859375 370.875 L 363.828125 337.761719 L 363.828125 403.136719 Z M 307 369.167969 L 307 302.375 L 363.972656 269.402344 L 363.972656 336.054688 Z M 291.941406 572.257812 C 291.796875 573.820312 291.371094 575.382812 290.378906 576.945312 C 289.242188 578.933594 287.679688 580.5 285.832031 581.492188 C 284.269531 582.347656 283.132812 582.628906 282.136719 582.347656 C 281.285156 582.0625 280.714844 581.210938 280.714844 579.929688 L 282.847656 578.507812 C 282.988281 579.503906 283.273438 580.074219 283.84375 580.214844 C 284.410156 580.355469 285.121094 580.214844 285.972656 579.789062 C 286.96875 579.21875 287.820312 578.367188 288.53125 577.230469 C 289.242188 576.09375 289.667969 574.957031 289.808594 573.675781 C 289.953125 572.539062 289.667969 571.828125 288.957031 571.546875 C 288.386719 571.261719 287.535156 571.402344 286.398438 571.972656 C 285.6875 572.398438 285.121094 572.824219 284.550781 573.394531 C 283.984375 573.960938 283.558594 574.671875 283.273438 575.242188 L 281.285156 576.09375 L 283.414062 566.570312 L 291.796875 561.738281 L 291.65625 563.730469 L 284.980469 567.566406 L 283.84375 572.539062 C 284.835938 571.261719 285.972656 570.265625 287.109375 569.699219 C 288.53125 568.84375 289.808594 568.5625 290.660156 568.988281 C 291.515625 569.699219 291.941406 570.691406 291.941406 572.257812 Z M 274.75 497.644531 L 276.027344 496.933594 L 275.035156 513.703125 L 272.902344 514.839844 L 273.753906 501.765625 C 273.1875 502.476562 272.476562 503.328125 271.765625 504.324219 C 270.914062 505.320312 270.203125 506.027344 269.492188 506.597656 L 269.636719 504.609375 C 270.769531 503.472656 271.90625 502.191406 272.761719 500.914062 C 273.753906 499.632812 274.464844 498.496094 274.75 497.644531 Z M 290.804688 490.253906 C 290.378906 489.828125 289.808594 489.683594 289.242188 489.683594 C 288.53125 489.683594 287.820312 489.96875 286.96875 490.539062 C 285.6875 491.25 284.695312 492.101562 283.84375 493.238281 C 282.988281 494.375 282.28125 495.65625 281.851562 497.074219 C 281.425781 498.496094 281 500.203125 281 502.191406 C 280.859375 505.320312 281.285156 507.308594 282.28125 508.019531 C 283.132812 508.585938 284.410156 508.445312 285.972656 507.59375 C 287.253906 506.882812 288.246094 506.027344 289.097656 504.890625 C 289.953125 503.753906 290.660156 502.476562 291.089844 501.054688 C 291.515625 499.632812 291.941406 497.929688 291.941406 495.9375 C 292.082031 494.234375 291.941406 493.097656 291.796875 492.242188 C 291.515625 491.390625 291.230469 490.679688 290.804688 490.253906 Z M 289.667969 497.074219 C 289.523438 499.777344 289.097656 501.765625 288.386719 503.042969 C 287.679688 504.324219 286.824219 505.175781 285.972656 505.746094 C 284.980469 506.3125 284.269531 506.3125 283.699219 505.746094 C 283.132812 505.175781 282.847656 503.613281 283.132812 500.914062 C 283.273438 498.210938 283.84375 496.082031 284.550781 494.660156 C 285.121094 493.523438 285.972656 492.671875 286.96875 492.101562 C 287.960938 491.53125 288.671875 491.53125 289.242188 492.101562 C 289.667969 492.8125 289.953125 494.375 289.667969 497.074219 Z M 273.042969 448.328125 L 273.898438 435.253906 C 273.328125 435.964844 272.617188 436.816406 271.90625 437.8125 C 271.054688 438.808594 270.34375 439.519531 269.636719 440.085938 L 269.777344 438.097656 C 270.914062 436.960938 272.050781 435.679688 272.902344 434.402344 C 273.753906 433.121094 274.464844 431.984375 274.890625 431.132812 L 276.171875 430.421875 L 275.175781 447.191406 Z M 288.53125 436.960938 C 289.242188 435.824219 289.667969 434.6875 289.808594 433.40625 C 289.953125 432.269531 289.667969 431.558594 288.957031 431.273438 C 288.386719 430.992188 287.535156 431.132812 286.398438 431.703125 C 285.6875 432.128906 285.121094 432.554688 284.550781 433.265625 C 283.984375 433.832031 283.558594 434.542969 283.273438 435.113281 L 281.285156 435.964844 L 283.414062 426.441406 L 291.796875 421.609375 L 291.65625 423.601562 L 284.980469 427.4375 L 283.84375 432.410156 C 284.835938 431.132812 285.972656 430.136719 287.109375 429.570312 C 288.53125 428.71875 289.808594 428.433594 290.804688 428.859375 C 291.796875 429.285156 292.222656 430.28125 292.082031 431.84375 C 291.941406 433.40625 291.515625 434.96875 290.519531 436.535156 C 289.382812 438.523438 287.820312 440.085938 285.972656 441.082031 C 284.410156 441.933594 283.273438 442.21875 282.28125 441.933594 C 281.425781 441.648438 280.859375 440.796875 280.859375 439.519531 L 282.988281 438.097656 C 283.132812 439.089844 283.414062 439.660156 283.984375 439.800781 C 284.550781 439.945312 285.261719 439.800781 286.117188 439.375 C 286.824219 438.949219 287.679688 438.097656 288.53125 436.960938 Z M 278.871094 367.039062 C 278.871094 367.75 278.585938 368.457031 278.300781 369.167969 C 278.015625 370.023438 277.449219 370.875 276.738281 372.011719 C 276.027344 373.148438 274.890625 374.710938 273.328125 376.84375 C 272.050781 378.550781 271.199219 379.6875 270.769531 380.253906 C 270.34375 380.824219 270.0625 381.390625 269.777344 381.816406 L 278.015625 376.984375 L 277.875 378.976562 L 266.792969 385.371094 C 266.792969 384.945312 266.933594 384.375 267.078125 383.808594 C 267.363281 382.953125 267.929688 381.960938 268.640625 380.824219 C 269.351562 379.6875 270.203125 378.40625 271.480469 376.703125 C 273.472656 374.144531 274.75 372.296875 275.460938 371.015625 C 276.171875 369.738281 276.597656 368.742188 276.597656 368.03125 C 276.597656 367.179688 276.453125 366.753906 275.886719 366.46875 C 275.316406 366.183594 274.609375 366.46875 273.613281 366.894531 C 272.617188 367.464844 271.765625 368.175781 271.199219 369.167969 C 270.628906 370.164062 270.203125 371.160156 270.203125 372.152344 L 268.070312 373.148438 C 268.355469 371.445312 268.925781 370.023438 269.917969 368.601562 C 270.914062 367.179688 272.191406 366.042969 273.753906 365.191406 C 275.316406 364.195312 276.597656 363.910156 277.449219 364.335938 C 278.585938 364.90625 279.011719 365.617188 278.871094 367.039062 Z M 290.804688 357.65625 C 290.378906 357.230469 289.808594 357.089844 289.242188 357.089844 C 288.53125 357.089844 287.820312 357.375 286.96875 357.941406 C 285.6875 358.652344 284.695312 359.503906 283.84375 360.640625 C 282.988281 361.78125 282.28125 363.058594 281.851562 364.480469 C 281.425781 365.902344 281 367.605469 281 369.597656 C 280.859375 372.722656 281.285156 374.710938 282.28125 375.421875 C 283.132812 375.992188 284.410156 375.847656 285.972656 374.996094 C 287.253906 374.285156 288.246094 373.433594 289.097656 372.296875 C 289.953125 371.160156 290.660156 369.878906 291.089844 368.457031 C 291.515625 367.039062 291.941406 365.332031 291.941406 363.34375 C 292.082031 361.636719 291.941406 360.5 291.796875 359.648438 C 291.515625 358.652344 291.230469 358.085938 290.804688 357.65625 Z M 289.667969 364.480469 C 289.523438 367.179688 289.097656 369.167969 288.386719 370.449219 C 287.679688 371.726562 286.824219 372.582031 285.972656 373.148438 C 284.980469 373.71875 284.269531 373.71875 283.699219 373.148438 C 283.132812 372.582031 282.847656 371.015625 283.132812 368.316406 C 283.273438 365.617188 283.84375 363.484375 284.550781 362.0625 C 285.121094 360.925781 285.972656 360.074219 286.96875 359.503906 C 287.960938 358.9375 288.671875 358.9375 289.242188 359.503906 C 289.667969 360.074219 289.953125 361.636719 289.667969 364.480469 Z M 289.667969 364.480469 " fill-opacity="1" fill-rule="nonzero"/><path fill="#e29417" d="M 421.796875 644.453125 L 426.199219 650.847656 L 426.199219 666.621094 C 426.34375 673.726562 421.652344 680.976562 412.277344 686.375 C 404.890625 690.640625 395.652344 693.199219 385.992188 694.050781 C 371.5 699.59375 352.320312 695.613281 341.097656 689.21875 C 331.722656 683.960938 324.191406 675.433594 324.191406 668.328125 L 330.585938 652.550781 L 330.585938 650.847656 L 336.125 642.886719 C 337.6875 641.609375 346.070312 633.792969 347.917969 632.65625 C 366.527344 621.855469 396.082031 625.125 414.691406 635.925781 C 416.679688 637.0625 420.234375 643.171875 421.796875 644.453125 Z M 327.457031 698.457031 C 308.847656 687.65625 281.425781 687.65625 262.816406 698.457031 C 260.828125 699.59375 255.996094 706.699219 254.433594 707.976562 L 247.472656 715.652344 L 247.472656 731.570312 C 247.472656 738.675781 252.160156 745.78125 261.394531 751.183594 C 280.007812 761.984375 310.550781 761.984375 329.164062 751.183594 C 338.539062 745.78125 343.230469 738.535156 343.085938 731.429688 L 343.085938 715.652344 L 336.125 707.269531 C 334.5625 705.988281 329.449219 699.59375 327.457031 698.457031 Z M 698.839844 551.933594 C 697.277344 550.652344 688.183594 543.546875 686.195312 542.410156 C 667.582031 531.609375 641.300781 535.164062 622.6875 545.820312 C 620.699219 546.957031 617.574219 552.359375 616.152344 553.496094 L 609.757812 560.460938 L 609.757812 570.976562 L 608.765625 570.976562 C 609.332031 569.128906 609.757812 567.28125 609.757812 565.433594 L 609.757812 549.515625 L 603.507812 539.996094 C 601.945312 538.714844 592.566406 531.894531 590.722656 530.757812 C 578.929688 523.9375 564.296875 522.941406 550.230469 525.785156 L 519.96875 543.265625 L 514 549.515625 L 514 565.292969 C 514 569.839844 515.707031 574.386719 519.542969 578.507812 L 519.542969 586.75 C 519.398438 593.859375 523.664062 603.664062 537.585938 603.09375 C 537.585938 605.796875 537.441406 607.074219 537.585938 608.78125 C 556.339844 617.449219 583.902344 616.738281 601.234375 606.648438 C 609.617188 601.816406 614.164062 595.707031 615.015625 589.308594 C 617.148438 591.726562 620.128906 594 623.683594 596.132812 C 642.292969 606.933594 672.839844 606.933594 691.449219 596.132812 C 700.828125 590.730469 705.375 583.625 705.375 576.519531 L 705.375 560.601562 Z M 584.042969 394.75 L 591.429688 372.582031 L 591.429688 311.894531 L 576.796875 287.027344 L 555.914062 345.71875 L 505.902344 330.230469 L 489.136719 354.671875 L 450.636719 333.070312 L 430.886719 407.542969 L 384.574219 389.917969 L 373.632812 423.175781 L 355.875 413.652344 L 324.757812 560.601562 L 371.21875 533.742188 L 387.554688 455.152344 L 415.828125 425.875 L 421.511719 410.382812 L 463.421875 413.9375 L 476.210938 386.507812 L 507.183594 397.59375 L 529.628906 363.484375 Z M 584.042969 394.75 " fill-opacity="1" fill-rule="nonzero"/><g clip-path="url(#135568f7fe)"><path fill="#778dfc" d="M 140.773438 750.613281 L 108.523438 731.996094 C 103.410156 729.011719 99.714844 723.46875 99.714844 716.648438 L 100.566406 368.601562 C 100.566406 344.582031 113.496094 322.269531 134.382812 310.332031 L 586.742188 50.542969 C 591.289062 47.984375 596.261719 48.265625 600.382812 50.398438 L 600.523438 50.542969 C 600.667969 50.542969 600.667969 50.683594 600.808594 50.683594 L 630.359375 67.878906 C 626.664062 66.457031 622.261719 66.457031 618.28125 68.734375 L 166.632812 329.660156 C 145.746094 341.742188 132.960938 363.910156 132.960938 388.070312 L 132.960938 736.117188 C 132.960938 742.371094 136.085938 747.488281 140.773438 750.613281 Z M 534.316406 608.496094 L 425.632812 671.3125 C 426.058594 669.75 426.199219 668.183594 426.199219 666.765625 L 426.199219 650.988281 L 421.796875 644.59375 C 420.234375 643.316406 416.679688 637.203125 414.832031 636.066406 C 404.179688 629.957031 390.113281 626.261719 376.472656 626.261719 L 407.589844 608.355469 L 412.5625 611.195312 L 462.570312 576.519531 L 480.1875 566.429688 L 534.316406 597.695312 C 538.578125 599.96875 538.578125 606.078125 534.316406 608.496094 Z M 344.507812 686.519531 C 335.128906 681.117188 330.585938 674.011719 330.585938 666.90625 L 330.585938 652.550781 L 302.027344 669.039062 L 356.726562 700.445312 C 362.410156 703.714844 369.511719 703.714844 375.195312 700.445312 L 385.992188 694.191406 C 371.359375 695.472656 355.730469 692.914062 344.507812 686.519531 Z M 449.074219 493.097656 L 456.460938 497.359375 L 469.957031 507.164062 L 484.875 459.554688 L 543.835938 484.570312 L 557.191406 476.894531 L 569.410156 454.015625 L 596.828125 454.015625 L 599.246094 452.59375 L 632.632812 366.183594 L 635.472656 367.75 L 635.472656 345.292969 L 615.015625 328.808594 L 591.574219 399.015625 L 537.160156 367.605469 L 514.710938 401.714844 L 483.738281 390.628906 L 470.953125 418.058594 L 429.042969 414.648438 L 423.359375 430.136719 L 394.800781 459.414062 L 368.519531 585.757812 L 426.058594 552.5 Z M 449.074219 493.097656 " fill-opacity="1" fill-rule="nonzero"/></g><path fill="#fecf47" d="M 691.308594 541.417969 C 672.699219 530.617188 642.152344 530.617188 623.539062 541.417969 C 615.15625 546.25 610.609375 552.5 609.757812 558.753906 C 609.757812 558.753906 609.617188 558.613281 609.617188 558.613281 L 609.617188 565.578125 C 609.617188 572.683594 604.929688 579.789062 595.695312 585.1875 C 577.082031 595.988281 546.535156 595.988281 527.925781 585.1875 C 525.933594 584.050781 524.230469 582.773438 522.667969 581.492188 C 524.941406 585.046875 528.632812 588.316406 533.464844 591.15625 C 552.078125 601.957031 582.621094 601.957031 601.234375 591.15625 C 609.617188 586.324219 614.164062 580.074219 615.015625 573.820312 C 617.148438 576.234375 620.128906 578.507812 623.683594 580.640625 C 642.292969 591.441406 672.839844 591.441406 691.449219 580.640625 C 710.0625 569.839844 709.921875 552.21875 691.308594 541.417969 Z M 649.539062 573.960938 L 649.539062 576.804688 C 649.539062 577.089844 649.398438 577.371094 648.972656 577.515625 C 648.6875 577.796875 648.261719 577.796875 647.835938 577.941406 C 647.410156 577.941406 646.980469 577.796875 646.414062 577.515625 L 635.898438 571.402344 C 635.472656 571.117188 635.191406 570.835938 635.191406 570.550781 L 635.191406 567.707031 C 635.191406 567.992188 635.332031 568.277344 635.898438 568.5625 L 646.414062 574.671875 C 646.839844 574.957031 647.410156 575.097656 647.835938 575.097656 C 648.261719 575.097656 648.6875 574.957031 648.972656 574.671875 C 649.398438 574.386719 649.539062 574.246094 649.539062 573.960938 Z M 661.332031 547.953125 C 660.90625 547.667969 660.621094 547.386719 660.621094 547.101562 C 660.621094 547.101562 660.621094 546.957031 660.621094 546.957031 C 660.621094 546.957031 660.621094 544.96875 660.621094 544.542969 C 660.761719 544.683594 660.90625 544.96875 661.332031 545.113281 L 662.46875 545.820312 L 661.472656 547.953125 Z M 677.667969 554.632812 L 679.660156 555.769531 L 676.960938 556.339844 L 676.960938 553.78125 C 676.960938 554.066406 677.242188 554.347656 677.667969 554.632812 Z M 669.855469 550.371094 C 669.855469 550.652344 669.714844 550.9375 669.289062 551.082031 C 668.863281 551.363281 668.578125 551.507812 668.152344 551.507812 C 667.726562 551.507812 667.296875 551.363281 666.730469 551.082031 L 664.742188 549.945312 L 660.054688 559.890625 L 658.632812 560.175781 L 664.742188 547.101562 L 666.730469 548.238281 C 667.15625 548.523438 667.726562 548.664062 668.152344 548.664062 C 668.578125 548.664062 669.003906 548.523438 669.289062 548.238281 C 669.714844 547.953125 669.855469 547.8125 669.855469 547.527344 Z M 647.835938 557.332031 C 647.835938 557.476562 647.976562 557.761719 648.261719 557.902344 L 654.652344 561.597656 L 652.378906 563.019531 L 648.261719 560.601562 C 647.976562 560.460938 647.835938 560.175781 647.835938 560.035156 Z M 642.152344 561.882812 L 648.542969 565.578125 L 646.273438 566.996094 L 642.152344 564.582031 C 641.867188 564.4375 641.726562 564.15625 641.726562 564.011719 L 641.726562 561.171875 C 641.582031 561.453125 641.867188 561.738281 642.152344 561.882812 Z M 659.34375 572.683594 C 659.34375 572.824219 659.199219 573.109375 658.917969 573.25 C 658.632812 573.394531 658.347656 573.535156 658.0625 573.535156 C 657.78125 573.535156 657.351562 573.394531 657.070312 573.25 L 650.675781 569.554688 L 646.980469 571.972656 L 644.707031 570.691406 L 650.675781 566.855469 L 657.070312 570.550781 C 657.351562 570.691406 657.78125 570.835938 658.0625 570.835938 C 658.347656 570.835938 658.632812 570.691406 658.917969 570.550781 C 659.199219 570.410156 659.34375 570.265625 659.34375 569.980469 Z M 665.453125 568.703125 C 665.453125 568.84375 665.308594 569.128906 665.023438 569.269531 C 664.742188 569.414062 664.457031 569.554688 664.171875 569.554688 C 663.890625 569.554688 663.605469 569.414062 663.179688 569.269531 L 656.785156 565.578125 L 654.511719 566.996094 L 652.238281 565.71875 L 656.785156 562.734375 L 663.179688 566.429688 C 663.460938 566.570312 663.890625 566.714844 664.171875 566.714844 C 664.457031 566.714844 664.742188 566.570312 665.023438 566.429688 C 665.308594 566.285156 665.453125 566.144531 665.453125 565.859375 Z M 686.195312 559.75 C 686.195312 560.035156 686.050781 560.316406 685.625 560.460938 C 685.199219 560.746094 684.914062 560.886719 684.488281 560.886719 C 684.0625 560.886719 683.636719 560.746094 683.070312 560.460938 L 681.933594 559.75 L 662.609375 563.871094 L 659.058594 561.882812 L 681.789062 557.050781 L 682.925781 557.761719 C 683.351562 558.042969 683.921875 558.1875 684.347656 558.1875 C 684.773438 558.1875 685.199219 558.042969 685.484375 557.761719 C 685.910156 557.476562 686.050781 557.332031 686.050781 557.050781 L 686.050781 559.75 Z M 698.128906 562.875 C 697.417969 557.476562 693.441406 552.21875 686.335938 548.097656 C 670.425781 538.859375 644.425781 538.859375 628.511719 548.097656 C 621.410156 552.21875 617.429688 557.476562 616.71875 562.875 C 615.867188 556.195312 619.703125 549.375 628.511719 544.257812 C 644.425781 535.019531 670.425781 535.019531 686.335938 544.257812 C 695.144531 549.375 699.121094 556.195312 698.128906 562.875 Z M 527.925781 569.554688 C 546.535156 580.355469 577.082031 580.355469 595.695312 569.554688 C 614.304688 558.753906 614.304688 541.132812 595.695312 530.472656 C 587.453125 525.640625 576.65625 523.082031 565.859375 522.515625 L 679.375 456.855469 L 679.375 379.402344 L 664.742188 398.304688 L 640.164062 370.304688 L 606.347656 458.136719 L 577.082031 458.136719 L 558.898438 491.960938 L 492.265625 463.679688 L 477.347656 511.289062 L 456.460938 497.21875 L 413.839844 607.5 L 412.5625 610.910156 L 514.144531 552.21875 C 514.996094 558.613281 519.542969 564.867188 527.925781 569.554688 Z M 565.574219 537.011719 C 565.148438 536.726562 564.863281 536.441406 564.863281 536.15625 C 564.863281 536.15625 564.863281 536.015625 564.863281 536.015625 C 564.863281 536.015625 564.863281 534.027344 564.863281 533.601562 C 565.003906 533.742188 565.148438 534.027344 565.574219 534.167969 L 566.710938 534.878906 L 565.714844 537.011719 Z M 582.054688 543.691406 L 584.042969 544.828125 L 581.34375 545.394531 L 581.34375 542.835938 C 581.34375 543.121094 581.484375 543.40625 582.054688 543.691406 Z M 574.097656 539.425781 C 574.097656 539.710938 573.957031 539.996094 573.53125 540.136719 C 573.105469 540.421875 572.820312 540.5625 572.394531 540.5625 C 571.96875 540.5625 571.539062 540.421875 570.972656 540.136719 L 568.984375 539 L 564.296875 548.949219 L 562.875 549.234375 L 568.984375 536.15625 L 570.972656 537.292969 C 571.398438 537.578125 571.96875 537.722656 572.394531 537.722656 C 572.820312 537.722656 573.246094 537.578125 573.53125 537.292969 C 573.957031 537.011719 574.097656 536.867188 574.097656 536.585938 Z M 552.21875 546.390625 C 552.21875 546.53125 552.359375 546.816406 552.644531 546.957031 L 559.039062 550.652344 L 556.765625 552.074219 L 552.644531 549.660156 C 552.359375 549.515625 552.21875 549.234375 552.21875 549.089844 Z M 546.394531 550.9375 L 552.789062 554.632812 L 550.515625 556.054688 L 546.394531 553.636719 C 546.109375 553.496094 545.96875 553.210938 545.96875 553.070312 L 545.96875 550.226562 C 545.96875 550.652344 546.109375 550.796875 546.394531 550.9375 Z M 553.925781 565.71875 C 553.925781 566.003906 553.78125 566.285156 553.355469 566.429688 C 553.070312 566.714844 552.644531 566.714844 552.21875 566.855469 C 551.792969 566.855469 551.367188 566.714844 550.796875 566.429688 L 540.285156 560.316406 C 539.859375 560.035156 539.574219 559.75 539.574219 559.464844 L 539.574219 556.621094 C 539.574219 556.90625 539.714844 557.191406 540.285156 557.476562 L 550.796875 563.585938 C 551.222656 563.871094 551.792969 564.011719 552.21875 564.011719 C 552.644531 564.011719 553.070312 563.871094 553.355469 563.585938 C 553.78125 563.300781 553.925781 563.160156 553.925781 562.875 Z M 563.585938 561.738281 C 563.585938 561.882812 563.441406 562.164062 563.160156 562.308594 C 562.875 562.449219 562.589844 562.59375 562.304688 562.59375 C 562.023438 562.59375 561.597656 562.449219 561.3125 562.308594 L 554.917969 558.613281 L 551.222656 561.027344 L 548.953125 559.75 L 554.917969 555.914062 L 561.3125 559.609375 C 561.597656 559.75 562.023438 559.890625 562.304688 559.890625 C 562.589844 559.890625 562.875 559.75 563.160156 559.609375 C 563.441406 559.464844 563.585938 559.324219 563.585938 559.039062 Z M 569.835938 557.761719 C 569.835938 557.902344 569.695312 558.1875 569.410156 558.328125 C 569.125 558.46875 568.839844 558.613281 568.558594 558.613281 C 568.273438 558.613281 567.988281 558.46875 567.5625 558.328125 L 561.167969 554.632812 L 558.894531 556.054688 L 556.625 554.777344 L 561.167969 551.789062 L 567.5625 555.484375 C 567.847656 555.628906 568.273438 555.769531 568.558594 555.769531 C 568.839844 555.769531 569.125 555.628906 569.410156 555.484375 C 569.695312 555.34375 569.835938 555.203125 569.835938 554.917969 Z M 590.578125 548.804688 C 590.578125 549.089844 590.4375 549.375 590.011719 549.515625 C 589.585938 549.800781 589.300781 549.945312 588.875 549.945312 C 588.449219 549.945312 588.023438 549.800781 587.453125 549.515625 L 586.316406 548.804688 L 566.996094 552.929688 L 563.441406 550.9375 L 586.175781 546.105469 L 587.3125 546.816406 C 587.738281 547.101562 588.304688 547.242188 588.730469 547.242188 C 589.15625 547.242188 589.585938 547.101562 589.867188 546.816406 C 590.292969 546.53125 590.4375 546.390625 590.4375 546.105469 L 590.4375 548.804688 Z M 590.722656 533.316406 C 599.53125 538.433594 603.367188 545.253906 602.511719 551.933594 C 601.800781 546.53125 597.824219 541.273438 590.722656 537.152344 C 579.921875 530.898438 564.722656 528.910156 550.941406 531.183594 L 558.894531 526.636719 C 570.261719 526.066406 582.054688 528.339844 590.722656 533.316406 Z M 522.382812 547.527344 C 521.671875 548.949219 521.246094 550.371094 521.105469 551.933594 C 520.960938 550.796875 520.960938 549.515625 521.105469 548.378906 Z M 329.164062 696.609375 C 310.550781 685.808594 280.007812 685.808594 261.394531 696.609375 C 242.78125 707.410156 242.78125 725.03125 261.394531 735.691406 C 280.007812 746.351562 310.550781 746.492188 329.164062 735.691406 C 347.773438 724.890625 347.773438 707.410156 329.164062 696.609375 Z M 269.636719 715.792969 C 269.207031 716.078125 268.640625 716.222656 268.214844 716.222656 C 267.789062 716.222656 267.363281 716.078125 267.078125 715.792969 C 266.652344 715.511719 266.507812 715.367188 266.507812 715.085938 L 266.507812 712.242188 C 266.507812 712.527344 266.652344 712.808594 267.078125 712.953125 C 267.503906 713.238281 267.789062 713.378906 268.214844 713.378906 C 268.640625 713.378906 269.066406 713.238281 269.636719 712.953125 L 270.769531 712.242188 L 293.503906 717.074219 L 289.953125 719.0625 L 270.628906 714.941406 Z M 287.960938 705.277344 L 285.972656 706.414062 C 285.546875 706.699219 284.980469 706.839844 284.550781 706.839844 C 284.125 706.839844 283.699219 706.699219 283.414062 706.414062 C 282.988281 706.132812 282.847656 705.988281 282.847656 705.703125 L 282.847656 702.863281 C 282.847656 703.144531 282.988281 703.429688 283.414062 703.574219 C 283.84375 703.855469 284.125 704 284.550781 704 C 284.980469 704 285.40625 703.855469 285.972656 703.574219 L 287.960938 702.4375 L 294.070312 715.511719 L 292.652344 715.226562 Z M 304.441406 713.09375 C 304.726562 712.953125 304.867188 712.667969 304.867188 712.527344 L 304.867188 715.367188 C 304.867188 715.511719 304.726562 715.792969 304.441406 715.9375 L 300.324219 718.351562 L 298.050781 716.933594 Z M 310.550781 717.074219 C 310.835938 716.933594 310.976562 716.648438 310.976562 716.503906 L 310.976562 719.347656 C 310.976562 719.488281 310.835938 719.773438 310.550781 719.917969 L 306.433594 722.332031 L 304.160156 720.910156 Z M 290.234375 701.015625 L 291.371094 700.304688 C 291.796875 700.019531 291.941406 699.878906 292.082031 699.734375 C 292.082031 700.304688 292.082031 702.152344 292.082031 702.152344 C 292.082031 702.152344 292.082031 702.292969 292.082031 702.292969 C 292.082031 702.578125 291.796875 702.863281 291.371094 703.144531 L 291.230469 703.289062 Z M 273.042969 710.964844 L 275.035156 709.824219 C 275.460938 709.542969 275.742188 709.257812 275.742188 708.972656 L 275.742188 711.53125 Z M 288.53125 724.75 C 288.246094 724.75 287.960938 724.605469 287.679688 724.464844 C 287.394531 724.320312 287.253906 724.179688 287.253906 723.894531 L 287.253906 721.054688 C 287.253906 721.195312 287.394531 721.480469 287.679688 721.621094 C 287.960938 721.765625 288.246094 721.90625 288.53125 721.90625 C 288.816406 721.90625 289.097656 721.765625 289.523438 721.621094 L 295.917969 717.925781 L 300.464844 720.910156 L 298.191406 722.191406 L 295.917969 720.769531 L 289.523438 724.464844 C 289.097656 724.605469 288.816406 724.75 288.53125 724.75 Z M 295.632812 728.445312 C 295.351562 728.585938 294.925781 728.726562 294.640625 728.726562 C 294.355469 728.726562 294.070312 728.585938 293.789062 728.445312 C 293.503906 728.300781 293.359375 728.160156 293.359375 727.875 L 293.359375 725.03125 C 293.359375 725.175781 293.503906 725.457031 293.789062 725.601562 C 294.070312 725.742188 294.355469 725.886719 294.640625 725.886719 C 294.925781 725.886719 295.351562 725.742188 295.632812 725.601562 L 302.027344 721.90625 L 307.996094 725.742188 L 305.722656 727.023438 L 302.027344 724.605469 Z M 317.511719 725.742188 C 317.511719 726.027344 317.371094 726.3125 316.804688 726.597656 L 306.289062 732.707031 C 305.863281 732.992188 305.296875 733.132812 304.867188 733.132812 C 304.441406 733.132812 304.015625 732.992188 303.734375 732.707031 C 303.304688 732.421875 303.164062 732.28125 303.164062 731.996094 L 303.164062 729.152344 C 303.164062 729.4375 303.304688 729.722656 303.734375 729.863281 C 304.015625 730.148438 304.441406 730.148438 304.867188 730.289062 C 305.296875 730.289062 305.722656 730.148438 306.289062 729.863281 L 316.804688 723.753906 C 317.230469 723.46875 317.511719 723.183594 317.511719 722.902344 Z M 335.984375 718.070312 C 335.273438 712.667969 331.292969 707.410156 324.191406 703.289062 C 308.277344 694.050781 282.28125 694.050781 266.367188 703.289062 C 259.261719 707.410156 255.285156 712.667969 254.574219 718.070312 C 253.722656 711.390625 257.558594 704.566406 266.367188 699.453125 C 282.28125 690.214844 308.277344 690.214844 324.191406 699.453125 C 333 704.566406 336.976562 711.390625 335.984375 718.070312 Z M 412.277344 631.945312 C 393.664062 621.144531 363.121094 621.144531 344.507812 631.945312 C 325.894531 642.746094 325.894531 660.367188 344.507812 671.027344 C 363.121094 681.828125 393.664062 681.828125 412.277344 671.027344 C 430.886719 660.226562 430.886719 642.605469 412.277344 631.945312 Z M 352.746094 650.988281 C 352.320312 651.273438 351.753906 651.414062 351.328125 651.414062 C 350.902344 651.414062 350.476562 651.273438 350.191406 650.988281 C 349.765625 650.703125 349.621094 650.5625 349.621094 650.277344 L 349.621094 647.4375 C 349.621094 647.71875 349.765625 648.003906 350.191406 648.148438 C 350.617188 648.429688 350.902344 648.574219 351.328125 648.574219 C 351.753906 648.574219 352.179688 648.429688 352.746094 648.148438 L 353.882812 647.4375 L 376.617188 652.269531 L 373.0625 654.257812 L 353.742188 650.136719 Z M 371.074219 640.472656 L 369.085938 641.609375 C 368.660156 641.894531 368.09375 642.035156 367.664062 642.035156 C 367.238281 642.035156 366.8125 641.894531 366.527344 641.609375 C 366.101562 641.324219 365.960938 641.183594 365.960938 640.898438 L 365.960938 638.054688 C 365.960938 638.339844 366.101562 638.625 366.527344 638.765625 C 366.957031 639.050781 367.238281 639.195312 367.664062 639.195312 C 368.09375 639.195312 368.519531 639.050781 369.085938 638.765625 L 371.074219 637.628906 L 377.183594 650.703125 L 375.765625 650.421875 Z M 394.234375 654.542969 C 394.234375 654.683594 394.089844 654.96875 393.808594 655.109375 L 389.6875 657.527344 L 387.414062 656.105469 L 393.808594 652.410156 C 394.089844 652.269531 394.234375 651.984375 394.234375 651.84375 Z M 387.980469 650.5625 C 387.980469 650.703125 387.839844 650.988281 387.554688 651.132812 L 383.4375 653.546875 L 381.164062 652.125 L 387.554688 648.429688 C 387.839844 648.289062 387.980469 648.003906 387.980469 647.863281 Z M 373.347656 636.351562 L 374.484375 635.640625 C 374.910156 635.355469 375.054688 635.214844 375.195312 635.070312 C 375.195312 635.640625 375.195312 637.488281 375.195312 637.488281 C 375.195312 637.488281 375.195312 637.628906 375.195312 637.628906 C 375.195312 637.914062 374.910156 638.199219 374.484375 638.484375 L 374.34375 638.625 Z M 358.855469 646.726562 L 356.15625 646.15625 L 358.148438 645.019531 C 358.574219 644.734375 358.855469 644.453125 358.855469 644.167969 Z M 371.644531 659.941406 C 371.359375 659.941406 371.074219 659.800781 370.792969 659.660156 C 370.507812 659.515625 370.363281 659.375 370.363281 659.089844 L 370.363281 656.246094 C 370.363281 656.390625 370.507812 656.675781 370.792969 656.816406 C 371.074219 656.957031 371.359375 657.101562 371.644531 657.101562 C 371.929688 657.101562 372.210938 656.957031 372.636719 656.816406 L 379.03125 653.121094 L 383.578125 656.105469 L 381.304688 657.382812 L 379.03125 655.964844 L 372.636719 659.660156 C 372.210938 659.941406 371.929688 659.941406 371.644531 659.941406 Z M 378.746094 663.78125 C 378.464844 663.921875 378.035156 664.0625 377.753906 664.0625 C 377.46875 664.0625 377.183594 663.921875 376.898438 663.78125 C 376.617188 663.636719 376.472656 663.496094 376.472656 663.210938 L 376.472656 660.367188 C 376.472656 660.511719 376.617188 660.796875 376.898438 660.9375 C 377.183594 661.078125 377.46875 661.222656 377.753906 661.222656 C 378.035156 661.222656 378.464844 661.078125 378.746094 660.9375 L 385.140625 657.242188 L 391.109375 661.078125 L 388.835938 662.359375 L 385.140625 659.941406 Z M 400.625 661.078125 C 400.625 661.363281 400.484375 661.648438 399.917969 661.933594 L 389.402344 668.042969 C 388.976562 668.328125 388.410156 668.46875 387.980469 668.46875 C 387.554688 668.46875 387.128906 668.328125 386.84375 668.042969 C 386.417969 667.757812 386.277344 667.617188 386.277344 667.332031 L 386.277344 664.492188 C 386.277344 664.773438 386.417969 665.058594 386.84375 665.199219 C 387.128906 665.484375 387.554688 665.484375 387.980469 665.628906 C 388.410156 665.628906 388.835938 665.484375 389.402344 665.199219 L 399.917969 659.089844 C 400.34375 658.804688 400.625 658.519531 400.625 658.238281 Z M 419.097656 653.40625 C 418.386719 648.003906 414.40625 642.746094 407.304688 638.625 C 391.390625 629.386719 365.390625 629.386719 349.480469 638.625 C 342.375 642.746094 338.398438 648.003906 337.6875 653.40625 C 336.835938 646.726562 340.671875 639.902344 349.480469 634.789062 C 365.390625 625.550781 391.390625 625.550781 407.304688 634.789062 C 416.113281 639.761719 420.089844 646.726562 419.097656 653.40625 Z M 419.097656 653.40625 " fill-opacity="1" fill-rule="nonzero"/></svg>