<svg xmlns="http://www.w3.org/2000/svg" xmlns:xlink="http://www.w3.org/1999/xlink" width="1080" zoomAndPan="magnify" viewBox="0 0 810 809.999993" height="1080" preserveAspectRatio="xMidYMid meet" version="1.0"><defs><clipPath id="a6e30901ae"><path d="M 213.632812 129 L 550 129 L 550 569 L 213.632812 569 Z M 213.632812 129 " clip-rule="nonzero"/></clipPath></defs><path fill="#dedce1" d="M 542.417969 154.617188 L 548.375 229.089844 L 544.550781 350.269531 C 544.550781 350.269531 243.699219 543.875 242.1875 544.410156 C 240.675781 544.941406 242.1875 427.941406 241.652344 362.992188 C 241.121094 298.042969 277.660156 307.117188 286.996094 298.84375 Z M 542.417969 154.617188 " fill-opacity="1" fill-rule="nonzero"/><path fill="#182d88" d="M 571.933594 333.898438 L 562.777344 345.730469 L 552.019531 330.785156 L 551.484375 330.519531 L 551.484375 149.546875 C 551.484375 145.722656 549.085938 142.695312 545.972656 141.449219 C 543.660156 140.558594 534.238281 137.445312 531.75 138.871094 L 249.832031 298.664062 C 236.765625 306.226562 234.71875 326.691406 224.496094 337.191406 L 214.09375 544.230469 C 224.40625 552.773438 236.675781 566.917969 239.609375 568.875 C 242.898438 571.101562 247.433594 571.632812 251.433594 569.320312 L 329.222656 524.390625 C 329.402344 524.566406 329.667969 524.746094 329.9375 524.921875 L 374.832031 550.636719 C 378.386719 552.683594 382.832031 552.683594 386.390625 550.636719 L 485.964844 493.160156 C 487.296875 492.449219 487.917969 490.9375 487.917969 489.78125 L 487.917969 479.992188 L 490.765625 475.1875 L 441.066406 479.457031 L 440.976562 459.796875 L 476.894531 439.066406 L 494.941406 442.089844 L 495.832031 428.210938 L 534.058594 406.144531 C 542.507812 401.25 548.375 393.242188 550.597656 383.992188 L 566.953125 372.691406 L 576.734375 336.65625 Z M 380.699219 361.125 L 380.253906 360.859375 L 380.253906 351.871094 L 384.613281 349.378906 Z M 415.90625 351.25 L 394.214844 343.773438 L 415.90625 331.140625 Z M 415.90625 330.074219 L 393.058594 343.328125 L 392.167969 343.0625 L 387.546875 340.394531 L 385.054688 348.046875 L 380.253906 350.804688 L 380.253906 309.875 L 415.90625 289.144531 Z M 415.90625 288.078125 L 380.167969 308.808594 L 380.167969 267.078125 L 415.816406 246.4375 L 415.816406 288.078125 Z M 416.796875 350.269531 L 416.796875 330.605469 L 422.929688 327.046875 Z M 452.445312 318.152344 L 445.246094 314.148438 L 452.445312 309.964844 Z M 452.445312 308.808594 L 444.265625 313.523438 L 433.421875 307.472656 L 428.796875 304.804688 L 423.285156 325.714844 L 416.796875 329.449219 L 416.796875 288.523438 L 452.445312 267.792969 Z M 452.445312 266.8125 L 416.796875 287.542969 L 416.796875 245.992188 L 452.445312 225.351562 Z M 453.425781 317.707031 L 453.425781 309.34375 L 462.9375 303.824219 Z M 489.074219 311.03125 L 463.914062 303.203125 L 489.074219 288.613281 Z M 489.074219 287.542969 L 453.425781 308.273438 L 453.425781 267.347656 L 489.074219 246.617188 Z M 489.074219 245.546875 L 453.425781 266.277344 L 453.425781 224.816406 L 489.074219 204.175781 Z M 494.765625 312.8125 L 490.050781 311.300781 L 490.050781 288.078125 L 507.121094 278.113281 Z M 525.703125 320.019531 L 516.992188 346.089844 L 516.722656 345.910156 L 514.855469 315.660156 L 525.792969 309.34375 L 525.792969 320.019531 Z M 525.703125 308.273438 L 514.769531 314.679688 L 512.546875 278.734375 L 509.34375 276.957031 L 525.703125 267.4375 Z M 525.703125 266.277344 L 508.367188 276.332031 L 507.832031 276.066406 L 507.566406 276.777344 L 489.964844 287.011719 L 489.964844 246.082031 L 525.613281 225.351562 L 525.613281 266.277344 Z M 525.703125 224.195312 L 490.050781 244.925781 L 490.050781 203.640625 L 525.703125 183 Z M 540.371094 335.5 L 536.28125 304.804688 L 531.660156 302.136719 L 526.59375 317.171875 L 526.59375 181.398438 L 342.914062 287.542969 L 342.648438 287.722656 L 342.648438 458.015625 L 383.457031 434.4375 L 381.324219 444.671875 L 247.875 521.808594 L 247.875 347.421875 C 247.875 336.121094 253.921875 325.625 263.703125 320.019531 L 533.4375 164.050781 C 536.550781 162.269531 540.371094 164.496094 540.371094 168.054688 Z M 358.652344 406.410156 L 350.027344 447.25 L 354.652344 449.917969 L 354.652344 450.007812 L 343.539062 456.414062 L 343.539062 415.21875 Z M 343.625 414.0625 L 343.625 373.136719 L 368.875 358.457031 L 359.007812 405.167969 Z M 372.078125 356.585938 L 379.277344 352.40625 L 379.277344 360.414062 Z M 371.097656 356.054688 L 369.5 355.164062 L 369.054688 357.210938 L 343.539062 372.066406 L 343.539062 331.140625 L 379.1875 310.410156 L 379.1875 351.335938 Z M 343.625 330.074219 L 343.625 288.253906 L 379.277344 267.613281 L 379.277344 309.34375 Z M 334.203125 457.214844 C 334.113281 458.195312 333.847656 459.171875 333.226562 460.152344 C 332.515625 461.398438 331.535156 462.375 330.378906 463 C 329.402344 463.53125 328.691406 463.710938 328.070312 463.53125 C 327.535156 463.355469 327.179688 462.820312 327.179688 462.019531 L 328.511719 461.128906 C 328.601562 461.753906 328.78125 462.109375 329.136719 462.199219 C 329.492188 462.285156 329.9375 462.199219 330.46875 461.929688 C 331.089844 461.574219 331.625 461.042969 332.070312 460.328125 C 332.515625 459.617188 332.78125 458.90625 332.871094 458.105469 C 332.957031 457.394531 332.78125 456.949219 332.335938 456.769531 C 331.980469 456.59375 331.445312 456.679688 330.734375 457.039062 C 330.292969 457.304688 329.9375 457.570312 329.578125 457.925781 C 329.222656 458.28125 328.957031 458.726562 328.78125 459.082031 L 327.535156 459.617188 L 328.867188 453.65625 L 334.113281 450.632812 L 334.023438 451.875 L 329.847656 454.277344 L 329.136719 457.394531 C 329.757812 456.59375 330.46875 455.96875 331.179688 455.613281 C 332.070312 455.078125 332.871094 454.902344 333.402344 455.167969 C 333.9375 455.613281 334.203125 456.238281 334.203125 457.214844 Z M 323.445312 410.503906 L 324.246094 410.058594 L 323.625 420.558594 L 322.289062 421.269531 L 322.824219 413.085938 C 322.46875 413.53125 322.023438 414.0625 321.578125 414.6875 C 321.046875 415.308594 320.601562 415.753906 320.15625 416.109375 L 320.246094 414.863281 C 320.957031 414.152344 321.667969 413.351562 322.199219 412.550781 C 322.824219 411.75 323.269531 411.039062 323.445312 410.503906 Z M 333.492188 405.878906 C 333.226562 405.609375 332.871094 405.523438 332.515625 405.523438 C 332.070312 405.523438 331.625 405.699219 331.089844 406.054688 C 330.292969 406.5 329.667969 407.035156 329.136719 407.746094 C 328.601562 408.457031 328.15625 409.257812 327.890625 410.148438 C 327.625 411.039062 327.355469 412.105469 327.355469 413.351562 C 327.269531 415.308594 327.535156 416.554688 328.15625 417 C 328.691406 417.355469 329.492188 417.265625 330.46875 416.734375 C 331.269531 416.289062 331.890625 415.753906 332.425781 415.042969 C 332.957031 414.332031 333.402344 413.53125 333.667969 412.640625 C 333.9375 411.75 334.203125 410.683594 334.203125 409.4375 C 334.292969 408.367188 334.203125 407.65625 334.113281 407.125 C 333.9375 406.589844 333.757812 406.144531 333.492188 405.878906 Z M 332.78125 410.148438 C 332.691406 411.839844 332.425781 413.085938 331.980469 413.886719 C 331.535156 414.6875 331.003906 415.21875 330.46875 415.574219 C 329.847656 415.933594 329.402344 415.933594 329.046875 415.574219 C 328.691406 415.21875 328.511719 414.242188 328.691406 412.550781 C 328.78125 410.859375 329.136719 409.527344 329.578125 408.636719 C 329.9375 407.925781 330.46875 407.390625 331.089844 407.035156 C 331.714844 406.679688 332.160156 406.679688 332.515625 407.035156 C 332.78125 407.480469 332.957031 408.457031 332.78125 410.148438 Z M 322.378906 379.628906 L 322.914062 371.445312 C 322.554688 371.890625 322.113281 372.425781 321.667969 373.046875 C 321.132812 373.667969 320.691406 374.113281 320.246094 374.46875 L 320.332031 373.226562 C 321.046875 372.511719 321.757812 371.710938 322.289062 370.910156 C 322.824219 370.109375 323.269531 369.398438 323.535156 368.863281 L 324.335938 368.421875 L 323.710938 378.917969 Z M 332.070312 372.511719 C 332.515625 371.800781 332.78125 371.089844 332.871094 370.289062 C 332.957031 369.578125 332.78125 369.132812 332.335938 368.953125 C 331.980469 368.777344 331.445312 368.863281 330.734375 369.222656 C 330.292969 369.488281 329.9375 369.753906 329.578125 370.199219 C 329.222656 370.554688 328.957031 371 328.78125 371.355469 L 327.535156 371.890625 L 328.867188 365.929688 L 334.113281 362.902344 L 334.023438 364.148438 L 329.847656 366.550781 L 329.136719 369.664062 C 329.757812 368.863281 330.46875 368.242188 331.179688 367.886719 C 332.070312 367.351562 332.871094 367.175781 333.492188 367.441406 C 334.113281 367.707031 334.378906 368.332031 334.292969 369.308594 C 334.203125 370.289062 333.9375 371.265625 333.3125 372.246094 C 332.601562 373.492188 331.625 374.46875 330.46875 375.09375 C 329.492188 375.628906 328.78125 375.804688 328.15625 375.628906 C 327.625 375.449219 327.269531 374.914062 327.269531 374.113281 L 328.601562 373.226562 C 328.691406 373.847656 328.867188 374.203125 329.222656 374.292969 C 329.578125 374.382812 330.023438 374.292969 330.558594 374.027344 C 331.003906 373.757812 331.535156 373.226562 332.070312 372.511719 Z M 326.023438 328.738281 C 326.023438 329.183594 325.847656 329.628906 325.667969 330.074219 C 325.492188 330.605469 325.136719 331.140625 324.691406 331.851562 C 324.246094 332.5625 323.535156 333.542969 322.554688 334.878906 C 321.757812 335.945312 321.222656 336.65625 320.957031 337.011719 C 320.691406 337.367188 320.511719 337.722656 320.332031 337.992188 L 325.492188 334.964844 L 325.402344 336.210938 L 318.46875 340.214844 C 318.46875 339.949219 318.554688 339.59375 318.644531 339.238281 C 318.824219 338.703125 319.179688 338.082031 319.621094 337.367188 C 320.066406 336.65625 320.601562 335.855469 321.402344 334.789062 C 322.644531 333.1875 323.445312 332.03125 323.890625 331.230469 C 324.335938 330.429688 324.601562 329.804688 324.601562 329.359375 C 324.601562 328.828125 324.511719 328.558594 324.15625 328.382812 C 323.800781 328.203125 323.355469 328.382812 322.734375 328.648438 C 322.113281 329.003906 321.578125 329.449219 321.222656 330.074219 C 320.867188 330.695312 320.601562 331.320312 320.601562 331.941406 L 319.265625 332.5625 C 319.445312 331.496094 319.800781 330.605469 320.421875 329.71875 C 321.046875 328.828125 321.84375 328.117188 322.824219 327.582031 C 323.800781 326.957031 324.601562 326.78125 325.136719 327.046875 C 325.847656 327.402344 326.113281 327.847656 326.023438 328.738281 Z M 333.492188 322.867188 C 333.226562 322.597656 332.871094 322.511719 332.515625 322.511719 C 332.070312 322.511719 331.625 322.6875 331.089844 323.042969 C 330.292969 323.488281 329.667969 324.023438 329.136719 324.734375 C 328.601562 325.445312 328.15625 326.246094 327.890625 327.136719 C 327.625 328.027344 327.355469 329.09375 327.355469 330.339844 C 327.269531 332.296875 327.535156 333.542969 328.15625 333.988281 C 328.691406 334.34375 329.492188 334.253906 330.46875 333.722656 C 331.269531 333.277344 331.890625 332.742188 332.425781 332.03125 C 332.957031 331.320312 333.402344 330.519531 333.667969 329.628906 C 333.9375 328.738281 334.203125 327.671875 334.203125 326.425781 C 334.292969 325.355469 334.203125 324.644531 334.113281 324.113281 C 333.9375 323.488281 333.757812 323.132812 333.492188 322.867188 Z M 332.78125 327.136719 C 332.691406 328.828125 332.425781 330.074219 331.980469 330.875 C 331.535156 331.675781 331.003906 332.207031 330.46875 332.5625 C 329.847656 332.921875 329.402344 332.921875 329.046875 332.5625 C 328.691406 332.207031 328.511719 331.230469 328.691406 329.539062 C 328.78125 327.847656 329.136719 326.515625 329.578125 325.625 C 329.9375 324.914062 330.46875 324.378906 331.089844 324.023438 C 331.714844 323.667969 332.160156 323.667969 332.515625 324.023438 C 332.78125 324.378906 332.957031 325.355469 332.78125 327.136719 Z M 332.78125 327.136719 " fill-opacity="1" fill-rule="nonzero"/><path fill="#e29417" d="M 415.460938 502.414062 L 418.21875 506.417969 L 418.21875 516.292969 C 418.308594 520.742188 415.371094 525.28125 409.503906 528.660156 C 404.882812 531.328125 399.101562 532.929688 393.058594 533.464844 C 383.988281 536.933594 371.988281 534.445312 364.964844 530.441406 C 359.097656 527.148438 354.382812 521.808594 354.382812 517.359375 L 358.386719 507.484375 L 358.386719 506.417969 L 361.851562 501.433594 C 362.832031 500.632812 368.074219 495.742188 369.230469 495.027344 C 380.878906 488.265625 399.371094 490.3125 411.015625 497.074219 C 412.261719 497.785156 414.484375 501.613281 415.460938 502.414062 Z M 356.429688 536.222656 C 344.78125 529.460938 327.625 529.460938 315.976562 536.222656 C 314.734375 536.933594 311.710938 541.382812 310.730469 542.183594 L 306.375 546.988281 L 306.375 556.953125 C 306.375 561.402344 309.308594 565.851562 315.089844 569.230469 C 326.734375 575.992188 345.847656 575.992188 357.496094 569.230469 C 363.363281 565.851562 366.296875 561.3125 366.207031 556.863281 L 366.207031 546.988281 L 361.851562 541.738281 C 360.875 540.9375 357.671875 536.933594 356.429688 536.222656 Z M 588.824219 444.492188 C 587.847656 443.691406 582.15625 439.242188 580.914062 438.53125 C 569.265625 431.769531 552.820312 433.992188 541.171875 440.667969 C 539.929688 441.378906 537.972656 444.757812 537.082031 445.472656 L 533.082031 449.832031 L 533.082031 456.414062 L 532.460938 456.414062 C 532.816406 455.257812 533.082031 454.101562 533.082031 452.945312 L 533.082031 442.980469 L 529.171875 437.019531 C 528.191406 436.21875 522.324219 431.945312 521.167969 431.234375 C 513.789062 426.964844 504.632812 426.339844 495.832031 428.121094 L 476.894531 439.066406 L 473.160156 442.980469 L 473.160156 452.855469 C 473.160156 455.703125 474.226562 458.550781 476.628906 461.128906 L 476.628906 466.289062 C 476.539062 470.738281 479.207031 476.878906 487.917969 476.523438 C 487.917969 478.210938 487.828125 479.011719 487.917969 480.082031 C 499.652344 485.507812 516.902344 485.0625 527.746094 478.746094 C 532.992188 475.722656 535.839844 471.894531 536.371094 467.890625 C 537.707031 469.40625 539.574219 470.828125 541.796875 472.164062 C 553.441406 478.925781 572.554688 478.925781 584.203125 472.164062 C 590.070312 468.78125 592.914062 464.332031 592.914062 459.882812 L 592.914062 449.917969 Z M 516.992188 346.089844 L 521.613281 332.207031 L 521.613281 294.214844 L 512.457031 278.648438 L 499.386719 315.390625 L 468.09375 305.695312 L 457.601562 320.996094 L 433.507812 307.472656 L 421.152344 354.09375 L 392.167969 343.0625 L 385.324219 363.882812 L 374.210938 357.921875 L 354.738281 449.917969 L 383.8125 433.105469 L 394.035156 383.902344 L 411.726562 365.574219 L 415.285156 355.875 L 441.511719 358.097656 L 449.511719 340.925781 L 468.894531 347.867188 L 482.941406 326.515625 Z M 516.992188 346.089844 " fill-opacity="1" fill-rule="nonzero"/><g clip-path="url(#a6e30901ae)"><path fill="#778dfc" d="M 239.609375 568.875 L 219.425781 557.222656 C 216.226562 555.351562 213.914062 551.882812 213.914062 547.613281 L 214.449219 329.71875 C 214.449219 314.679688 222.539062 300.710938 235.609375 293.238281 L 518.679688 130.59375 C 521.523438 128.992188 524.636719 129.171875 527.214844 130.507812 L 527.304688 130.59375 C 527.390625 130.59375 527.390625 130.683594 527.480469 130.683594 L 545.972656 141.449219 C 543.660156 140.558594 540.90625 140.558594 538.417969 141.984375 L 255.789062 305.339844 C 242.71875 312.902344 234.71875 326.78125 234.71875 341.90625 L 234.71875 559.800781 C 234.71875 563.714844 236.675781 566.917969 239.609375 568.875 Z M 485.875 479.902344 L 417.863281 519.230469 C 418.128906 518.25 418.21875 517.273438 418.21875 516.382812 L 418.21875 506.507812 L 415.460938 502.503906 C 414.484375 501.703125 412.261719 497.875 411.105469 497.164062 C 404.4375 493.339844 395.636719 491.023438 387.101562 491.023438 L 406.570312 479.8125 L 409.683594 481.59375 L 440.976562 459.882812 L 452 453.566406 L 485.875 473.140625 C 488.542969 474.566406 488.542969 478.390625 485.875 479.902344 Z M 367.097656 528.75 C 361.230469 525.367188 358.386719 520.917969 358.386719 516.472656 L 358.386719 507.484375 L 340.515625 517.804688 L 374.742188 537.46875 C 378.300781 539.515625 382.746094 539.515625 386.300781 537.46875 L 393.058594 533.554688 C 383.902344 534.355469 374.121094 532.753906 367.097656 528.75 Z M 432.53125 407.65625 L 437.15625 410.328125 L 445.601562 416.464844 L 454.933594 386.660156 L 491.832031 402.320312 L 500.1875 397.515625 L 507.832031 383.191406 L 524.992188 383.191406 L 526.503906 382.300781 L 547.394531 328.203125 L 549.175781 329.183594 L 549.175781 315.125 L 536.371094 304.804688 L 521.703125 348.757812 L 487.652344 329.09375 L 473.605469 350.449219 L 454.222656 343.507812 L 446.222656 360.679688 L 419.996094 358.542969 L 416.441406 368.242188 L 398.570312 386.570312 L 382.121094 465.667969 L 418.128906 444.847656 Z M 432.53125 407.65625 " fill-opacity="1" fill-rule="nonzero"/></g><path fill="#fecf47" d="M 584.113281 437.90625 C 572.46875 431.144531 553.351562 431.144531 541.707031 437.90625 C 536.460938 440.933594 533.617188 444.847656 533.082031 448.761719 C 533.082031 448.761719 532.992188 448.671875 532.992188 448.671875 L 532.992188 453.035156 C 532.992188 457.480469 530.058594 461.929688 524.28125 465.3125 C 512.632812 472.074219 493.519531 472.074219 481.875 465.3125 C 480.628906 464.601562 479.5625 463.800781 478.582031 463 C 480.007812 465.222656 482.316406 467.269531 485.339844 469.046875 C 496.988281 475.8125 516.101562 475.8125 527.746094 469.046875 C 532.992188 466.023438 535.839844 462.109375 536.371094 458.195312 C 537.707031 459.707031 539.574219 461.128906 541.796875 462.464844 C 553.441406 469.226562 572.554688 469.226562 584.203125 462.464844 C 595.847656 455.703125 595.761719 444.671875 584.113281 437.90625 Z M 557.976562 458.28125 L 557.976562 460.0625 C 557.976562 460.242188 557.886719 460.417969 557.621094 460.507812 C 557.441406 460.683594 557.175781 460.683594 556.910156 460.773438 C 556.640625 460.773438 556.375 460.683594 556.019531 460.507812 L 549.441406 456.679688 C 549.175781 456.503906 548.996094 456.324219 548.996094 456.148438 L 548.996094 454.367188 C 548.996094 454.546875 549.085938 454.722656 549.441406 454.902344 L 556.019531 458.726562 C 556.285156 458.90625 556.640625 458.996094 556.910156 458.996094 C 557.175781 458.996094 557.441406 458.90625 557.621094 458.726562 C 557.886719 458.550781 557.976562 458.460938 557.976562 458.28125 Z M 565.355469 442 C 565.089844 441.824219 564.910156 441.644531 564.910156 441.46875 C 564.910156 441.46875 564.910156 441.378906 564.910156 441.378906 C 564.910156 441.378906 564.910156 440.132812 564.910156 439.867188 C 565 439.953125 565.089844 440.132812 565.355469 440.222656 L 566.066406 440.667969 L 565.445312 442 Z M 575.578125 446.183594 L 576.824219 446.894531 L 575.132812 447.25 L 575.132812 445.648438 C 575.132812 445.828125 575.3125 446.003906 575.578125 446.183594 Z M 570.6875 443.511719 C 570.6875 443.691406 570.601562 443.871094 570.332031 443.957031 C 570.066406 444.136719 569.890625 444.226562 569.621094 444.226562 C 569.355469 444.226562 569.089844 444.136719 568.734375 443.957031 L 567.488281 443.246094 L 564.554688 449.472656 L 563.664062 449.652344 L 567.488281 441.46875 L 568.734375 442.179688 C 569 442.355469 569.355469 442.445312 569.621094 442.445312 C 569.890625 442.445312 570.15625 442.355469 570.332031 442.179688 C 570.601562 442 570.6875 441.910156 570.6875 441.734375 Z M 556.910156 447.871094 C 556.910156 447.960938 556.996094 448.140625 557.175781 448.230469 L 561.175781 450.542969 L 559.753906 451.433594 L 557.175781 449.917969 C 556.996094 449.832031 556.910156 449.652344 556.910156 449.5625 Z M 553.351562 450.71875 L 557.351562 453.035156 L 555.929688 453.921875 L 553.351562 452.410156 C 553.175781 452.320312 553.085938 452.144531 553.085938 452.054688 L 553.085938 450.273438 C 552.996094 450.453125 553.175781 450.632812 553.351562 450.71875 Z M 564.109375 457.480469 C 564.109375 457.570312 564.019531 457.75 563.84375 457.839844 C 563.664062 457.925781 563.488281 458.015625 563.308594 458.015625 C 563.132812 458.015625 562.867188 457.925781 562.6875 457.839844 L 558.6875 455.523438 L 556.375 457.039062 L 554.953125 456.238281 L 558.6875 453.835938 L 562.6875 456.148438 C 562.867188 456.238281 563.132812 456.324219 563.308594 456.324219 C 563.488281 456.324219 563.664062 456.238281 563.84375 456.148438 C 564.019531 456.058594 564.109375 455.96875 564.109375 455.792969 Z M 567.933594 454.992188 C 567.933594 455.078125 567.84375 455.257812 567.667969 455.347656 C 567.488281 455.4375 567.3125 455.523438 567.132812 455.523438 C 566.953125 455.523438 566.777344 455.4375 566.511719 455.347656 L 562.507812 453.035156 L 561.085938 453.921875 L 559.664062 453.121094 L 562.507812 451.253906 L 566.511719 453.566406 C 566.6875 453.65625 566.953125 453.746094 567.132812 453.746094 C 567.3125 453.746094 567.488281 453.65625 567.667969 453.566406 C 567.84375 453.476562 567.933594 453.390625 567.933594 453.210938 Z M 580.914062 449.386719 C 580.914062 449.5625 580.824219 449.742188 580.558594 449.832031 C 580.289062 450.007812 580.113281 450.097656 579.847656 450.097656 C 579.578125 450.097656 579.3125 450.007812 578.957031 449.832031 L 578.246094 449.386719 L 566.15625 451.964844 L 563.933594 450.71875 L 578.15625 447.695312 L 578.867188 448.140625 C 579.136719 448.316406 579.492188 448.40625 579.757812 448.40625 C 580.023438 448.40625 580.289062 448.316406 580.46875 448.140625 C 580.734375 447.960938 580.824219 447.875 580.824219 447.695312 L 580.824219 449.386719 Z M 588.382812 451.34375 C 587.9375 447.960938 585.445312 444.671875 581 442.089844 C 571.042969 436.304688 554.773438 436.304688 544.816406 442.089844 C 540.371094 444.671875 537.882812 447.960938 537.4375 451.34375 C 536.90625 447.160156 539.304688 442.890625 544.816406 439.6875 C 554.773438 433.902344 571.042969 433.902344 581 439.6875 C 586.515625 442.890625 589.003906 447.160156 588.382812 451.34375 Z M 481.875 455.523438 C 493.519531 462.285156 512.632812 462.285156 524.28125 455.523438 C 535.925781 448.761719 535.925781 437.730469 524.28125 431.058594 C 519.125 428.03125 512.367188 426.429688 505.609375 426.074219 L 576.644531 384.96875 L 576.644531 336.480469 L 567.488281 348.3125 L 552.109375 330.785156 L 530.949219 385.769531 L 512.632812 385.769531 L 501.253906 406.945312 L 459.558594 389.238281 L 450.222656 419.046875 L 437.15625 410.238281 L 410.484375 479.28125 L 409.683594 481.414062 L 473.25 444.671875 C 473.78125 448.671875 476.628906 452.589844 481.875 455.523438 Z M 505.433594 435.148438 C 505.167969 434.972656 504.988281 434.792969 504.988281 434.617188 C 504.988281 434.617188 504.988281 434.527344 504.988281 434.527344 C 504.988281 434.527344 504.988281 433.28125 504.988281 433.015625 C 505.078125 433.105469 505.167969 433.28125 505.433594 433.371094 L 506.144531 433.816406 L 505.523438 435.148438 Z M 515.746094 439.332031 L 516.992188 440.042969 L 515.300781 440.398438 L 515.300781 438.796875 C 515.300781 438.976562 515.390625 439.152344 515.746094 439.332031 Z M 510.765625 436.664062 C 510.765625 436.839844 510.679688 437.019531 510.410156 437.105469 C 510.144531 437.285156 509.96875 437.375 509.699219 437.375 C 509.433594 437.375 509.167969 437.285156 508.8125 437.105469 L 507.566406 436.394531 L 504.632812 442.625 L 503.742188 442.800781 L 507.566406 434.617188 L 508.8125 435.328125 C 509.078125 435.503906 509.433594 435.59375 509.699219 435.59375 C 509.96875 435.59375 510.234375 435.503906 510.410156 435.328125 C 510.679688 435.148438 510.765625 435.0625 510.765625 434.882812 Z M 497.074219 441.023438 C 497.074219 441.109375 497.164062 441.289062 497.34375 441.378906 L 501.34375 443.691406 L 499.921875 444.582031 L 497.34375 443.070312 C 497.164062 442.980469 497.074219 442.800781 497.074219 442.710938 Z M 493.429688 443.871094 L 497.429688 446.183594 L 496.007812 447.074219 L 493.429688 445.558594 C 493.253906 445.472656 493.164062 445.292969 493.164062 445.203125 L 493.164062 443.425781 C 493.164062 443.691406 493.253906 443.78125 493.429688 443.871094 Z M 498.144531 453.121094 C 498.144531 453.300781 498.054688 453.476562 497.789062 453.566406 C 497.609375 453.746094 497.34375 453.746094 497.074219 453.835938 C 496.808594 453.835938 496.542969 453.746094 496.1875 453.566406 L 489.609375 449.742188 C 489.339844 449.5625 489.164062 449.386719 489.164062 449.207031 L 489.164062 447.429688 C 489.164062 447.605469 489.253906 447.785156 489.609375 447.960938 L 496.1875 451.789062 C 496.453125 451.964844 496.808594 452.054688 497.074219 452.054688 C 497.34375 452.054688 497.609375 451.964844 497.789062 451.789062 C 498.054688 451.609375 498.144531 451.519531 498.144531 451.34375 Z M 504.1875 450.632812 C 504.1875 450.71875 504.097656 450.898438 503.921875 450.988281 C 503.742188 451.074219 503.566406 451.164062 503.386719 451.164062 C 503.210938 451.164062 502.945312 451.074219 502.765625 450.988281 L 498.765625 448.671875 L 496.453125 450.1875 L 495.03125 449.386719 L 498.765625 446.984375 L 502.765625 449.296875 C 502.945312 449.386719 503.210938 449.472656 503.386719 449.472656 C 503.566406 449.472656 503.742188 449.386719 503.921875 449.296875 C 504.097656 449.207031 504.1875 449.117188 504.1875 448.941406 Z M 508.101562 448.140625 C 508.101562 448.230469 508.011719 448.40625 507.832031 448.496094 C 507.65625 448.585938 507.476562 448.671875 507.300781 448.671875 C 507.121094 448.671875 506.945312 448.585938 506.675781 448.496094 L 502.675781 446.183594 L 501.253906 447.074219 L 499.832031 446.273438 L 502.675781 444.402344 L 506.675781 446.714844 C 506.855469 446.804688 507.121094 446.894531 507.300781 446.894531 C 507.476562 446.894531 507.65625 446.804688 507.832031 446.714844 C 508.011719 446.628906 508.101562 446.539062 508.101562 446.359375 Z M 521.082031 442.535156 C 521.082031 442.710938 520.992188 442.890625 520.722656 442.980469 C 520.457031 443.15625 520.28125 443.246094 520.011719 443.246094 C 519.746094 443.246094 519.480469 443.15625 519.125 442.980469 L 518.414062 442.535156 L 506.320312 445.113281 L 504.097656 443.871094 L 518.324219 440.84375 L 519.035156 441.289062 C 519.300781 441.46875 519.65625 441.554688 519.925781 441.554688 C 520.191406 441.554688 520.457031 441.46875 520.636719 441.289062 C 520.902344 441.109375 520.992188 441.023438 520.992188 440.84375 L 520.992188 442.535156 Z M 521.167969 432.835938 C 526.679688 436.039062 529.082031 440.308594 528.546875 444.492188 C 528.105469 441.109375 525.613281 437.820312 521.167969 435.238281 C 514.414062 431.324219 504.898438 430.078125 496.277344 431.503906 L 501.253906 428.65625 C 508.367188 428.300781 515.746094 429.722656 521.167969 432.835938 Z M 478.40625 441.734375 C 477.960938 442.625 477.695312 443.511719 477.605469 444.492188 C 477.515625 443.78125 477.515625 442.980469 477.605469 442.269531 Z M 357.496094 535.066406 C 345.847656 528.304688 326.734375 528.304688 315.089844 535.066406 C 303.441406 541.828125 303.441406 552.859375 315.089844 559.535156 C 326.734375 566.207031 345.847656 566.296875 357.496094 559.535156 C 369.140625 552.773438 369.140625 541.828125 357.496094 535.066406 Z M 320.246094 547.078125 C 319.976562 547.253906 319.621094 547.34375 319.355469 547.34375 C 319.089844 547.34375 318.824219 547.253906 318.644531 547.078125 C 318.378906 546.898438 318.289062 546.8125 318.289062 546.632812 L 318.289062 544.851562 C 318.289062 545.03125 318.378906 545.210938 318.644531 545.296875 C 318.910156 545.476562 319.089844 545.566406 319.355469 545.566406 C 319.621094 545.566406 319.890625 545.476562 320.246094 545.296875 L 320.957031 544.851562 L 335.179688 547.878906 L 332.957031 549.125 L 320.867188 546.542969 Z M 331.714844 540.492188 L 330.46875 541.207031 C 330.203125 541.382812 329.847656 541.472656 329.578125 541.472656 C 329.3125 541.472656 329.046875 541.382812 328.867188 541.207031 C 328.601562 541.027344 328.511719 540.9375 328.511719 540.761719 L 328.511719 538.980469 C 328.511719 539.160156 328.601562 539.335938 328.867188 539.425781 C 329.136719 539.605469 329.3125 539.691406 329.578125 539.691406 C 329.847656 539.691406 330.113281 539.605469 330.46875 539.425781 L 331.714844 538.714844 L 335.535156 546.898438 L 334.648438 546.722656 Z M 342.027344 545.386719 C 342.203125 545.296875 342.292969 545.121094 342.292969 545.03125 L 342.292969 546.8125 C 342.292969 546.898438 342.203125 547.078125 342.027344 547.167969 L 339.449219 548.679688 L 338.027344 547.789062 Z M 345.847656 547.878906 C 346.027344 547.789062 346.117188 547.613281 346.117188 547.523438 L 346.117188 549.300781 C 346.117188 549.390625 346.027344 549.570312 345.847656 549.65625 L 343.269531 551.171875 L 341.847656 550.28125 Z M 333.136719 537.824219 L 333.847656 537.378906 C 334.113281 537.203125 334.203125 537.113281 334.292969 537.023438 C 334.292969 537.378906 334.292969 538.535156 334.292969 538.535156 C 334.292969 538.535156 334.292969 538.625 334.292969 538.625 C 334.292969 538.804688 334.113281 538.980469 333.847656 539.160156 L 333.757812 539.25 Z M 322.378906 544.054688 L 323.625 543.339844 C 323.890625 543.164062 324.066406 542.984375 324.066406 542.808594 L 324.066406 544.410156 Z M 332.070312 552.683594 C 331.890625 552.683594 331.714844 552.59375 331.535156 552.503906 C 331.359375 552.417969 331.269531 552.328125 331.269531 552.148438 L 331.269531 550.371094 C 331.269531 550.457031 331.359375 550.636719 331.535156 550.726562 C 331.714844 550.816406 331.890625 550.902344 332.070312 550.902344 C 332.246094 550.902344 332.425781 550.816406 332.691406 550.726562 L 336.691406 548.414062 L 339.539062 550.28125 L 338.113281 551.082031 L 336.691406 550.191406 L 332.691406 552.503906 C 332.425781 552.59375 332.246094 552.683594 332.070312 552.683594 Z M 336.515625 554.996094 C 336.335938 555.085938 336.070312 555.175781 335.890625 555.175781 C 335.714844 555.175781 335.535156 555.085938 335.359375 554.996094 C 335.179688 554.90625 335.09375 554.820312 335.09375 554.640625 L 335.09375 552.859375 C 335.09375 552.949219 335.179688 553.128906 335.359375 553.21875 C 335.535156 553.304688 335.714844 553.394531 335.890625 553.394531 C 336.070312 553.394531 336.335938 553.304688 336.515625 553.21875 L 340.515625 550.902344 L 344.25 553.304688 L 342.828125 554.105469 L 340.515625 552.59375 Z M 350.207031 553.304688 C 350.207031 553.484375 350.117188 553.660156 349.761719 553.839844 L 343.183594 557.664062 C 342.914062 557.84375 342.558594 557.933594 342.292969 557.933594 C 342.027344 557.933594 341.761719 557.84375 341.582031 557.664062 C 341.316406 557.488281 341.226562 557.398438 341.226562 557.222656 L 341.226562 555.441406 C 341.226562 555.621094 341.316406 555.796875 341.582031 555.886719 C 341.761719 556.0625 342.027344 556.0625 342.292969 556.152344 C 342.558594 556.152344 342.828125 556.0625 343.183594 555.886719 L 349.761719 552.058594 C 350.027344 551.882812 350.207031 551.703125 350.207031 551.527344 Z M 361.761719 548.5 C 361.320312 545.121094 358.828125 541.828125 354.382812 539.25 C 344.425781 533.464844 328.15625 533.464844 318.199219 539.25 C 313.753906 541.828125 311.265625 545.121094 310.820312 548.5 C 310.289062 544.320312 312.6875 540.050781 318.199219 536.847656 C 328.15625 531.0625 344.425781 531.0625 354.382812 536.847656 C 359.894531 540.050781 362.386719 544.320312 361.761719 548.5 Z M 409.503906 494.582031 C 397.859375 487.820312 378.746094 487.820312 367.097656 494.582031 C 355.453125 501.347656 355.453125 512.378906 367.097656 519.050781 C 378.746094 525.8125 397.859375 525.8125 409.503906 519.050781 C 421.152344 512.289062 421.152344 501.257812 409.503906 494.582031 Z M 372.253906 506.507812 C 371.988281 506.683594 371.632812 506.773438 371.363281 506.773438 C 371.097656 506.773438 370.832031 506.683594 370.652344 506.507812 C 370.386719 506.328125 370.296875 506.238281 370.296875 506.0625 L 370.296875 504.28125 C 370.296875 504.460938 370.386719 504.636719 370.652344 504.726562 C 370.921875 504.90625 371.097656 504.992188 371.363281 504.992188 C 371.632812 504.992188 371.898438 504.90625 372.253906 504.726562 L 372.964844 504.28125 L 387.191406 507.308594 L 384.96875 508.550781 L 372.875 505.972656 Z M 383.722656 499.921875 L 382.476562 500.632812 C 382.210938 500.8125 381.855469 500.902344 381.589844 500.902344 C 381.324219 500.902344 381.054688 500.8125 380.878906 500.632812 C 380.609375 500.457031 380.523438 500.367188 380.523438 500.1875 L 380.523438 498.410156 C 380.523438 498.585938 380.609375 498.765625 380.878906 498.855469 C 381.144531 499.03125 381.324219 499.121094 381.589844 499.121094 C 381.855469 499.121094 382.121094 499.03125 382.476562 498.855469 L 383.722656 498.144531 L 387.546875 506.328125 L 386.65625 506.148438 Z M 398.214844 508.730469 C 398.214844 508.820312 398.125 508.996094 397.949219 509.085938 L 395.371094 510.597656 L 393.945312 509.710938 L 397.949219 507.394531 C 398.125 507.308594 398.214844 507.128906 398.214844 507.039062 Z M 394.300781 506.238281 C 394.300781 506.328125 394.214844 506.507812 394.035156 506.59375 L 391.457031 508.109375 L 390.035156 507.21875 L 394.035156 504.90625 C 394.214844 504.816406 394.300781 504.636719 394.300781 504.546875 Z M 385.144531 497.34375 L 385.855469 496.898438 C 386.125 496.71875 386.210938 496.628906 386.300781 496.542969 C 386.300781 496.898438 386.300781 498.054688 386.300781 498.054688 C 386.300781 498.054688 386.300781 498.144531 386.300781 498.144531 C 386.300781 498.320312 386.125 498.5 385.855469 498.675781 L 385.769531 498.765625 Z M 376.078125 503.835938 L 374.386719 503.480469 L 375.632812 502.769531 C 375.898438 502.589844 376.078125 502.414062 376.078125 502.234375 Z M 384.078125 512.113281 C 383.902344 512.113281 383.722656 512.023438 383.546875 511.933594 C 383.367188 511.84375 383.277344 511.753906 383.277344 511.578125 L 383.277344 509.796875 C 383.277344 509.886719 383.367188 510.066406 383.546875 510.152344 C 383.722656 510.242188 383.902344 510.332031 384.078125 510.332031 C 384.257812 510.332031 384.433594 510.242188 384.699219 510.152344 L 388.703125 507.839844 L 391.546875 509.710938 L 390.125 510.511719 L 388.703125 509.621094 L 384.699219 511.933594 C 384.433594 512.113281 384.257812 512.113281 384.078125 512.113281 Z M 388.523438 514.515625 C 388.347656 514.601562 388.078125 514.691406 387.902344 514.691406 C 387.722656 514.691406 387.546875 514.601562 387.367188 514.515625 C 387.191406 514.425781 387.101562 514.335938 387.101562 514.15625 L 387.101562 512.378906 C 387.101562 512.46875 387.191406 512.644531 387.367188 512.734375 C 387.546875 512.824219 387.722656 512.914062 387.902344 512.914062 C 388.078125 512.914062 388.347656 512.824219 388.523438 512.734375 L 392.523438 510.421875 L 396.257812 512.824219 L 394.835938 513.625 L 392.523438 512.113281 Z M 402.214844 512.824219 C 402.214844 513 402.125 513.179688 401.769531 513.355469 L 395.191406 517.183594 C 394.925781 517.359375 394.570312 517.449219 394.300781 517.449219 C 394.035156 517.449219 393.769531 517.359375 393.589844 517.183594 C 393.324219 517.003906 393.234375 516.917969 393.234375 516.738281 L 393.234375 514.957031 C 393.234375 515.136719 393.324219 515.316406 393.589844 515.402344 C 393.769531 515.582031 394.035156 515.582031 394.300781 515.671875 C 394.570312 515.671875 394.835938 515.582031 395.191406 515.402344 L 401.769531 511.578125 C 402.039062 511.398438 402.214844 511.222656 402.214844 511.042969 Z M 413.773438 508.019531 C 413.328125 504.636719 410.839844 501.347656 406.394531 498.765625 C 396.4375 492.980469 380.167969 492.980469 370.210938 498.765625 C 365.765625 501.347656 363.273438 504.636719 362.832031 508.019531 C 362.296875 503.835938 364.699219 499.566406 370.210938 496.363281 C 380.167969 490.578125 396.4375 490.578125 406.394531 496.363281 C 411.90625 499.476562 414.394531 503.835938 413.773438 508.019531 Z M 413.773438 508.019531 " fill-opacity="1" fill-rule="nonzero"/></svg>